<svg width="29" height="37" viewBox="0 0 29 37" fill="none" xmlns="http://www.w3.org/2000/svg">
<path d="M3.98 34.0286H1.59719L1.06203 35.5129H0.288593L2.46047 29.8254H3.11672L5.2925 35.5129H4.52297L3.98 34.0286ZM1.82375 33.4114H3.75734L2.78859 30.7512L1.82375 33.4114ZM7.48016 35.0012C7.73797 35.0012 7.96323 34.9231 8.15594 34.7668C8.34865 34.6106 8.45542 34.4153 8.47625 34.1809H9.15984C9.14682 34.4231 9.06349 34.6536 8.90984 34.8723C8.7562 35.0911 8.55047 35.2655 8.29266 35.3958C8.03745 35.526 7.76661 35.5911 7.48016 35.5911C6.90464 35.5911 6.4463 35.3997 6.10516 35.0168C5.76661 34.6314 5.59734 34.1054 5.59734 33.4387V33.3176C5.59734 32.9062 5.67286 32.5403 5.82391 32.22C5.97495 31.8997 6.19109 31.651 6.47234 31.4739C6.7562 31.2968 7.09083 31.2083 7.47625 31.2083C7.95021 31.2083 8.34344 31.3502 8.65594 31.634C8.97104 31.9179 9.13901 32.2864 9.15984 32.7395H8.47625C8.45542 32.4661 8.35125 32.2421 8.16375 32.0676C7.97885 31.8905 7.74969 31.802 7.47625 31.802C7.10906 31.802 6.82391 31.9348 6.62078 32.2004C6.42026 32.4635 6.32 32.845 6.32 33.345V33.4817C6.32 33.9687 6.42026 34.3437 6.62078 34.6067C6.8213 34.8697 7.10776 35.0012 7.48016 35.0012ZM11.5077 35.0012C11.7655 35.0012 11.9907 34.9231 12.1834 34.7668C12.3761 34.6106 12.4829 34.4153 12.5037 34.1809H13.1873C13.1743 34.4231 13.091 34.6536 12.9373 34.8723C12.7837 35.0911 12.578 35.2655 12.3202 35.3958C12.0649 35.526 11.7941 35.5911 11.5077 35.5911C10.9321 35.5911 10.4738 35.3997 10.1327 35.0168C9.79411 34.6314 9.62484 34.1054 9.62484 33.4387V33.3176C9.62484 32.9062 9.70036 32.5403 9.85141 32.22C10.0024 31.8997 10.2186 31.651 10.4998 31.4739C10.7837 31.2968 11.1183 31.2083 11.5037 31.2083C11.9777 31.2083 12.3709 31.3502 12.6834 31.634C12.9985 31.9179 13.1665 32.2864 13.1873 32.7395H12.5037C12.4829 32.4661 12.3787 32.2421 12.1912 32.0676C12.0064 31.8905 11.7772 31.802 11.5037 31.802C11.1366 31.802 10.8514 31.9348 10.6483 32.2004C10.4478 32.4635 10.3475 32.845 10.3475 33.345V33.4817C10.3475 33.9687 10.4478 34.3437 10.6483 34.6067C10.8488 34.8697 11.1353 35.0012 11.5077 35.0012ZM13.6484 33.3606C13.6484 32.9465 13.7292 32.5741 13.8906 32.2434C14.0547 31.9127 14.2812 31.6575 14.5703 31.4778C14.862 31.2981 15.194 31.2083 15.5664 31.2083C16.1419 31.2083 16.6068 31.4075 16.9609 31.8059C17.3177 32.2043 17.4961 32.7343 17.4961 33.3958V33.4465C17.4961 33.858 17.4167 34.2278 17.2578 34.5559C17.1016 34.8814 16.8763 35.1353 16.582 35.3176C16.2904 35.4999 15.9544 35.5911 15.5742 35.5911C15.0013 35.5911 14.5365 35.3918 14.1797 34.9934C13.8255 34.595 13.6484 34.0676 13.6484 33.4114V33.3606ZM14.375 33.4465C14.375 33.9153 14.4831 34.2916 14.6992 34.5754C14.918 34.8593 15.2096 35.0012 15.5742 35.0012C15.9414 35.0012 16.2331 34.858 16.4492 34.5715C16.6654 34.2825 16.7734 33.8788 16.7734 33.3606C16.7734 32.8971 16.6628 32.5221 16.4414 32.2356C16.2227 31.9465 15.931 31.802 15.5664 31.802C15.2096 31.802 14.9219 31.9439 14.7031 32.2278C14.4844 32.5116 14.375 32.9179 14.375 33.4465ZM20.8517 35.095C20.5705 35.4257 20.1577 35.5911 19.6134 35.5911C19.1629 35.5911 18.8192 35.4609 18.5822 35.2004C18.3478 34.9374 18.2293 34.5494 18.2267 34.0364V31.2864H18.9494V34.0168C18.9494 34.6575 19.2098 34.9778 19.7306 34.9778C20.2827 34.9778 20.6499 34.7721 20.8322 34.3606V31.2864H21.5548V35.5129H20.8673L20.8517 35.095ZM23.18 31.2864L23.2034 31.8176C23.5264 31.4114 23.9482 31.2083 24.4691 31.2083C25.3623 31.2083 25.8128 31.7122 25.8206 32.72V35.5129H25.098V32.7161C25.0954 32.4114 25.0251 32.1861 24.887 32.0403C24.7516 31.8944 24.5394 31.8215 24.2503 31.8215C24.0159 31.8215 23.8102 31.884 23.6331 32.009C23.456 32.134 23.318 32.2981 23.2191 32.5012V35.5129H22.4964V31.2864H23.18ZM27.7309 30.2629V31.2864H28.52V31.845H27.7309V34.4661C27.7309 34.6353 27.7661 34.7629 27.8364 34.8489C27.9067 34.9322 28.0265 34.9739 28.1958 34.9739C28.2791 34.9739 28.3937 34.9583 28.5395 34.927V35.5129C28.3494 35.565 28.1645 35.5911 27.9848 35.5911C27.6619 35.5911 27.4184 35.4934 27.2544 35.2981C27.0903 35.1028 27.0083 34.8254 27.0083 34.4661V31.845H26.2388V31.2864H27.0083V30.2629H27.7309Z" fill="black"/>
<path d="M14.5 14.1122C15.9421 14.1122 17.3252 13.5687 18.3449 12.6013C19.3646 11.6339 19.9375 10.3217 19.9375 8.95358C19.9375 7.58542 19.3646 6.27329 18.3449 5.30586C17.3252 4.33842 15.9421 3.79492 14.5 3.79492C13.0579 3.79492 11.6748 4.33842 10.6551 5.30586C9.63538 6.27329 9.0625 7.58542 9.0625 8.95358C9.0625 10.3217 9.63538 11.6339 10.6551 12.6013C11.6748 13.5687 13.0579 14.1122 14.5 14.1122V14.1122ZM18.125 8.95358C18.125 9.86568 17.7431 10.7404 17.0633 11.3854C16.3834 12.0303 15.4614 12.3927 14.5 12.3927C13.5386 12.3927 12.6166 12.0303 11.9367 11.3854C11.2569 10.7404 10.875 9.86568 10.875 8.95358C10.875 8.04147 11.2569 7.16672 11.9367 6.52176C12.6166 5.87681 13.5386 5.51447 14.5 5.51447C15.4614 5.51447 16.3834 5.87681 17.0633 6.52176C17.7431 7.16672 18.125 8.04147 18.125 8.95358V8.95358ZM25.375 22.71C25.375 24.4295 23.5625 24.4295 23.5625 24.4295H5.4375C5.4375 24.4295 3.625 24.4295 3.625 22.71C3.625 20.9904 5.4375 15.8318 14.5 15.8318C23.5625 15.8318 25.375 20.9904 25.375 22.71ZM23.5625 22.7031C23.5607 22.2801 23.2834 21.0076 22.0545 19.8418C20.8728 18.7206 18.6488 17.5513 14.5 17.5513C10.3494 17.5513 8.12725 18.7206 6.9455 19.8418C5.71663 21.0076 5.44113 22.2801 5.4375 22.7031H23.5625Z" fill="black"/>
</svg>
