<svg width="26" height="36" viewBox="0 0 26 36" fill="none" xmlns="http://www.w3.org/2000/svg">
<path d="M0.660156 34V28.3125H2.51953C3.13672 28.3125 3.60026 28.4401 3.91016 28.6953C4.22266 28.9505 4.37891 29.3281 4.37891 29.8281C4.37891 30.0938 4.30339 30.3294 4.15234 30.5352C4.0013 30.7383 3.79557 30.8958 3.53516 31.0078C3.84245 31.0938 4.08464 31.2578 4.26172 31.5C4.44141 31.7396 4.53125 32.026 4.53125 32.3594C4.53125 32.8698 4.36589 33.2708 4.03516 33.5625C3.70443 33.8542 3.23698 34 2.63281 34H0.660156ZM1.41016 31.3398V33.3867H2.64844C2.9974 33.3867 3.27214 33.2969 3.47266 33.1172C3.67578 32.9349 3.77734 32.6849 3.77734 32.3672C3.77734 31.6823 3.40495 31.3398 2.66016 31.3398H1.41016ZM1.41016 30.7383H2.54297C2.87109 30.7383 3.13281 30.6562 3.32812 30.4922C3.52604 30.3281 3.625 30.1055 3.625 29.8242C3.625 29.5117 3.53385 29.2852 3.35156 29.1445C3.16927 29.0013 2.89193 28.9297 2.51953 28.9297H1.41016V30.7383ZM7.98063 33.582C7.69938 33.9128 7.28661 34.0781 6.74234 34.0781C6.29182 34.0781 5.94807 33.9479 5.71109 33.6875C5.47672 33.4245 5.35823 33.0365 5.35563 32.5234V29.7734H6.07828V32.5039C6.07828 33.1445 6.3387 33.4648 6.85953 33.4648C7.41161 33.4648 7.7788 33.2591 7.96109 32.8477V29.7734H8.68375V34H7.99625L7.98063 33.582ZM9.44953 31.8516C9.44953 31.2031 9.60318 30.6823 9.91047 30.2891C10.2178 29.8932 10.6201 29.6953 11.1175 29.6953C11.6123 29.6953 12.0042 29.8646 12.2933 30.2031V28H13.0159V34H12.3519L12.3167 33.5469C12.0277 33.901 11.6253 34.0781 11.1097 34.0781C10.6201 34.0781 10.2204 33.8776 9.91047 33.4766C9.60318 33.0755 9.44953 32.5521 9.44953 31.9062V31.8516ZM10.1722 31.9336C10.1722 32.4128 10.2711 32.7878 10.4691 33.0586C10.667 33.3294 10.9404 33.4648 11.2894 33.4648C11.7477 33.4648 12.0823 33.2591 12.2933 32.8477V30.9062C12.0771 30.5078 11.7451 30.3086 11.2972 30.3086C10.943 30.3086 10.667 30.4453 10.4691 30.7188C10.2711 30.9922 10.1722 31.3971 10.1722 31.9336ZM13.8091 31.8516C13.8091 31.1927 13.9614 30.6693 14.2661 30.2812C14.5708 29.8906 14.9744 29.6953 15.477 29.6953C15.9927 29.6953 16.395 29.8776 16.6841 30.2422L16.7192 29.7734H17.3794V33.8984C17.3794 34.4453 17.2166 34.8763 16.8911 35.1914C16.5682 35.5065 16.1333 35.6641 15.5864 35.6641C15.2817 35.6641 14.9835 35.599 14.6919 35.4688C14.4002 35.3385 14.1776 35.1602 14.0239 34.9336L14.3989 34.5C14.7088 34.8828 15.0877 35.0742 15.5356 35.0742C15.8872 35.0742 16.1606 34.9753 16.3559 34.7773C16.5539 34.5794 16.6528 34.3008 16.6528 33.9414V33.5781C16.3638 33.9115 15.9692 34.0781 15.4692 34.0781C14.9744 34.0781 14.5734 33.8789 14.2661 33.4805C13.9614 33.082 13.8091 32.5391 13.8091 31.8516ZM14.5356 31.9336C14.5356 32.4102 14.6333 32.7852 14.8286 33.0586C15.0239 33.3294 15.2973 33.4648 15.6489 33.4648C16.1046 33.4648 16.4393 33.2578 16.6528 32.8438V30.9141C16.4315 30.5104 16.0994 30.3086 15.6567 30.3086C15.3052 30.3086 15.0304 30.4453 14.8325 30.7188C14.6346 30.9922 14.5356 31.3971 14.5356 31.9336ZM20.067 34.0781C19.4941 34.0781 19.028 33.8906 18.6686 33.5156C18.3092 33.138 18.1295 32.6341 18.1295 32.0039V31.8711C18.1295 31.4518 18.209 31.0781 18.3678 30.75C18.5293 30.4193 18.7532 30.1615 19.0397 29.9766C19.3288 29.7891 19.6413 29.6953 19.9772 29.6953C20.5267 29.6953 20.9538 29.8763 21.2584 30.2383C21.5631 30.6003 21.7155 31.1185 21.7155 31.793V32.0938H18.8522C18.8626 32.5104 18.9837 32.8477 19.2155 33.1055C19.4498 33.3607 19.7467 33.4883 20.1061 33.4883C20.3613 33.4883 20.5774 33.4362 20.7545 33.332C20.9316 33.2279 21.0866 33.0898 21.2194 32.918L21.6608 33.2617C21.3066 33.806 20.7754 34.0781 20.067 34.0781ZM19.9772 30.2891C19.6855 30.2891 19.4407 30.3958 19.2428 30.6094C19.0449 30.8203 18.9225 31.1172 18.8756 31.5H20.9928V31.4453C20.972 31.0781 20.873 30.7943 20.6959 30.5938C20.5189 30.3906 20.2793 30.2891 19.9772 30.2891ZM23.3758 28.75V29.7734H24.1648V30.332H23.3758V32.9531C23.3758 33.1224 23.4109 33.25 23.4813 33.3359C23.5516 33.4193 23.6714 33.4609 23.8406 33.4609C23.924 33.4609 24.0385 33.4453 24.1844 33.4141V34C23.9943 34.0521 23.8094 34.0781 23.6297 34.0781C23.3068 34.0781 23.0633 33.9805 22.8992 33.7852C22.7352 33.5898 22.6531 33.3125 22.6531 32.9531V30.332H21.8836V29.7734H22.6531V28.75H23.3758Z" fill="black"/>
<path d="M16.5621 2.14868V9.43827L23.846 9.41839C23.4767 7.64286 22.5876 5.99518 21.2893 4.69975C19.9939 3.40949 18.3517 2.52324 16.5621 2.14868Z" fill="black" fill-opacity="0.15"/>
<path d="M7.93735 24.1054C6.58511 23.5344 5.36923 22.7134 4.32664 21.6708C3.28891 20.6363 2.46206 19.41 1.89204 18.0601C1.30062 16.6626 0.997228 15.1601 1.00002 13.6426V13.6483C0.998497 15.1389 1.29133 16.6152 1.8617 17.9924C2.43208 19.3696 3.26878 20.6206 4.3238 21.6736C5.36639 22.7162 6.57943 23.5344 7.93166 24.1054C9.32975 24.6985 10.8333 25.0029 12.352 25.0003C13.119 25.0003 13.8747 24.9236 14.6162 24.7758C13.8804 24.9236 13.1276 24.9974 12.3634 24.9974C10.8293 25.0003 9.34072 24.6991 7.93735 24.1054ZM14.8633 11.3642C14.7383 11.3642 14.636 11.262 14.636 11.137V0.225317C14.636 0.188386 14.6446 0.154296 14.6616 0.123047C14.636 0.159978 14.619 0.205431 14.619 0.253725V11.154C14.619 11.279 14.7213 11.3813 14.8463 11.3813L25.7437 11.3529C25.7892 11.3529 25.8318 11.3387 25.8687 11.316C25.8403 11.3302 25.8062 11.3358 25.7721 11.3358L14.8633 11.3642Z" fill="black" fill-opacity="0.15"/>
<path d="M11.3975 4.25366C9.2413 4.46957 7.24419 5.41557 5.69309 6.96666C3.91188 8.74787 2.93179 11.1171 2.93179 13.637C2.93179 16.1568 3.91188 18.526 5.69309 20.3072C7.46293 22.0771 9.81514 23.0572 12.3179 23.0685C14.8235 23.0799 17.2241 22.0998 19.0024 20.3356C20.5734 18.7789 21.5279 16.7704 21.7467 14.6028H11.3975V4.25366Z" fill="black" fill-opacity="0.15"/>
<path d="M23.4995 12.6712H13.3293V2.50096C13.3293 2.37597 13.227 2.2737 13.102 2.2737H12.3634C10.8711 2.27125 9.39303 2.56391 8.01426 3.13482C6.63549 3.70573 5.38321 4.54363 4.32948 5.60032C3.29175 6.63484 2.4649 7.86113 1.89488 9.21102C1.30173 10.6111 0.99736 12.1165 1.00002 13.6371V13.6427C1.00002 15.1739 1.30115 16.6597 1.89204 18.0602C2.46305 19.4125 3.28405 20.6284 4.32664 21.6709C5.36923 22.7135 6.58511 23.5345 7.93735 24.1055C9.33742 24.6987 10.8428 25.0031 12.3634 25.0004C13.1276 25.0004 13.8804 24.9265 14.6162 24.7788C15.3576 24.6283 16.0849 24.4067 16.7866 24.1084C18.1388 23.5374 19.3547 22.7164 20.3973 21.6738C21.4398 20.6312 22.2609 19.4153 22.8319 18.0631C23.425 16.663 23.7294 15.1576 23.7267 13.6371V12.8984C23.7267 12.7734 23.6245 12.6712 23.4995 12.6712ZM19.0024 20.3357C18.1227 21.2086 17.0795 21.8992 15.9325 22.3682C14.7854 22.8371 13.5571 23.0752 12.3179 23.0686C9.81514 23.0573 7.46292 22.0772 5.69308 20.3073C3.91188 18.5261 2.93179 16.1569 2.93179 13.6371C2.93179 11.1172 3.91188 8.74797 5.69308 6.96676C7.24418 5.41566 9.24129 4.46966 11.3975 4.25376V14.6029H21.7467C21.5279 16.7705 20.5734 18.779 19.0024 20.3357Z" fill="black"/>
<path d="M25.9994 11.0916L25.9255 10.2904C25.6841 7.67403 24.5222 5.20534 22.6529 3.34175C20.7823 1.47474 18.3187 0.319285 15.6872 0.0747866L14.8832 0.000924846C14.7866 -0.00759767 14.7014 0.0435375 14.6616 0.123081C14.6458 0.154936 14.6371 0.189819 14.636 0.225351V11.137C14.636 11.262 14.7383 11.3643 14.8633 11.3643L25.7721 11.3359C25.8062 11.3359 25.8375 11.3273 25.8687 11.316C25.9106 11.2961 25.9454 11.264 25.9687 11.224C25.9921 11.1839 26.0027 11.1378 25.9994 11.0916ZM16.5621 9.43819V2.1486C18.3517 2.52316 19.9939 3.40941 21.2893 4.69967C22.5876 5.99509 23.4767 7.64278 23.846 9.4183L16.5621 9.43819Z" fill="black"/>
</svg>
