<svg width="375" height="812" viewBox="0 0 375 812" fill="none" xmlns="http://www.w3.org/2000/svg">
<g clip-path="url(#clip0)">
<rect width="375" height="812" fill="#F6F6FE"/>
<rect x="-13" y="-12" width="392" height="317" rx="12" fill="#D8D8FF"/>
<path d="M338.252 53.2518C338.331 53.172 338.426 53.1086 338.53 53.0654C338.634 53.0222 338.746 53 338.858 53C338.971 53 339.083 53.0222 339.187 53.0654C339.291 53.1086 339.386 53.172 339.465 53.2518L344 57.7885L348.535 53.2518C348.615 53.1721 348.71 53.1089 348.814 53.0658C348.918 53.0226 349.029 53.0004 349.142 53.0004C349.255 53.0004 349.366 53.0226 349.47 53.0658C349.574 53.1089 349.669 53.1721 349.749 53.2518C349.828 53.3314 349.892 53.426 349.935 53.5301C349.978 53.6342 350 53.7458 350 53.8585C350 53.9712 349.978 54.0827 349.935 54.1868C349.892 54.2909 349.828 54.3855 349.749 54.4652L345.212 59.0002L349.749 63.5352C349.828 63.6149 349.892 63.7095 349.935 63.8136C349.978 63.9177 350 64.0293 350 64.142C350 64.2546 349.978 64.3662 349.935 64.4703C349.892 64.5744 349.828 64.669 349.749 64.7487C349.669 64.8284 349.574 64.8916 349.47 64.9347C349.366 64.9778 349.255 65 349.142 65C349.029 65 348.918 64.9778 348.814 64.9347C348.71 64.8916 348.615 64.8284 348.535 64.7487L344 60.212L339.465 64.7487C339.386 64.8284 339.291 64.8916 339.187 64.9347C339.083 64.9778 338.971 65 338.858 65C338.746 65 338.634 64.9778 338.53 64.9347C338.426 64.8916 338.331 64.8284 338.252 64.7487C338.172 64.669 338.109 64.5744 338.066 64.4703C338.023 64.3662 338 64.2546 338 64.142C338 64.0293 338.023 63.9177 338.066 63.8136C338.109 63.7095 338.172 63.6149 338.252 63.5352L342.788 59.0002L338.252 54.4652C338.172 54.3856 338.109 54.291 338.065 54.1869C338.022 54.0828 338 53.9712 338 53.8585C338 53.7458 338.022 53.6342 338.065 53.53C338.109 53.4259 338.172 53.3314 338.252 53.2518Z" fill="black"/>
<g clip-path="url(#clip1)">
<path d="M78 -2H297C294.894 -1.39731 293.418 0.495246 293.345 2.68446L293.317 3.5618C293.317 17.0587 282.375 28 268.878 28H106.122C92.6249 28 81.6835 17.0587 81.6835 3.5618L81.6545 2.68447C81.5823 0.49525 80.1059 -1.39731 78 -2Z" fill="black"/>
<path opacity="0.35" d="M336.5 20C336.5 18.8034 337.47 17.8334 338.667 17.8334H355.333C356.53 17.8334 357.5 18.8034 357.5 20V26C357.5 27.1967 356.53 28.1667 355.333 28.1667H338.667C337.47 28.1667 336.5 27.1967 336.5 26V20Z" stroke="black"/>
<path opacity="0.4" d="M359 21V25C359.805 24.6612 360.328 23.8731 360.328 23C360.328 22.1269 359.805 21.3388 359 21Z" fill="black"/>
<path d="M338 20.6667C338 19.9303 338.597 19.3334 339.333 19.3334H354.667C355.403 19.3334 356 19.9303 356 20.6667V25.3334C356 26.0698 355.403 26.6667 354.667 26.6667H339.333C338.597 26.6667 338 26.0698 338 25.3334V20.6667Z" fill="black"/>
<path fill-rule="evenodd" clip-rule="evenodd" d="M323.33 19.608C325.546 19.6081 327.677 20.4596 329.283 21.9863C329.404 22.1042 329.598 22.1027 329.717 21.983L330.873 20.8163C330.933 20.7556 330.967 20.6734 330.966 20.5878C330.966 20.5022 330.931 20.4204 330.87 20.3603C326.655 16.3208 320.005 16.3208 315.79 20.3603C315.729 20.4203 315.694 20.5021 315.694 20.5877C315.693 20.6733 315.727 20.7556 315.787 20.8163L316.943 21.983C317.062 22.1029 317.256 22.1044 317.377 21.9863C318.983 20.4595 321.114 19.608 323.33 19.608ZM323.33 23.4037C324.548 23.4036 325.722 23.8561 326.624 24.6733C326.746 24.7893 326.939 24.7868 327.058 24.6677L328.212 23.501C328.273 23.4398 328.307 23.3568 328.306 23.2705C328.305 23.1843 328.27 23.102 328.208 23.042C325.459 20.4856 321.204 20.4856 318.455 23.042C318.393 23.102 318.358 23.1843 318.357 23.2706C318.356 23.3569 318.39 23.4399 318.451 23.501L319.605 24.6677C319.724 24.7868 319.917 24.7893 320.039 24.6733C320.941 23.8567 322.114 23.4042 323.33 23.4037ZM325.643 25.9575C325.645 26.044 325.611 26.1274 325.549 26.188L323.552 28.2037C323.493 28.2629 323.414 28.2963 323.33 28.2963C323.247 28.2963 323.167 28.2629 323.109 28.2037L321.111 26.188C321.049 26.1274 321.015 26.0439 321.017 25.9574C321.019 25.8709 321.056 25.789 321.121 25.731C322.396 24.6521 324.264 24.6521 325.54 25.731C325.604 25.7891 325.642 25.871 325.643 25.9575Z" fill="black"/>
<path fill-rule="evenodd" clip-rule="evenodd" d="M309.667 17.6666H308.667C308.114 17.6666 307.667 18.1143 307.667 18.6666V27.3333C307.667 27.8856 308.114 28.3333 308.667 28.3333H309.667C310.219 28.3333 310.667 27.8856 310.667 27.3333V18.6666C310.667 18.1143 310.219 17.6666 309.667 17.6666ZM304 20H305C305.552 20 306 20.4477 306 21V27.3333C306 27.8856 305.552 28.3333 305 28.3333H304C303.448 28.3333 303 27.8856 303 27.3333V21C303 20.4477 303.448 20 304 20ZM300.333 22.3333H299.333C298.781 22.3333 298.333 22.781 298.333 23.3333V27.3333C298.333 27.8856 298.781 28.3333 299.333 28.3333H300.333C300.886 28.3333 301.333 27.8856 301.333 27.3333V23.3333C301.333 22.781 300.886 22.3333 300.333 22.3333ZM295.667 24.3333H294.667C294.114 24.3333 293.667 24.781 293.667 25.3333V27.3333C293.667 27.8856 294.114 28.3333 294.667 28.3333H295.667C296.219 28.3333 296.667 27.8856 296.667 27.3333V25.3333C296.667 24.781 296.219 24.3333 295.667 24.3333Z" fill="black"/>
<path d="M37.3207 28.2563C40.0087 28.2563 41.6053 26.1543 41.6053 22.5947C41.6053 21.2544 41.349 20.1265 40.8583 19.2549C40.1478 17.8999 38.9247 17.1675 37.3793 17.1675C35.0795 17.1675 33.4535 18.7129 33.4535 20.8809C33.4535 22.917 34.9183 24.3965 36.9325 24.3965C38.1703 24.3965 39.1737 23.8179 39.6718 22.8145H39.6937C39.6937 22.8145 39.723 22.8145 39.7303 22.8145C39.745 22.8145 39.7963 22.8145 39.7963 22.8145C39.7963 25.2314 38.8807 26.6743 37.3353 26.6743C36.4271 26.6743 35.724 26.1763 35.4823 25.3779H33.6C33.9149 27.1138 35.3871 28.2563 37.3207 28.2563ZM37.3866 22.895C36.1708 22.895 35.3065 22.0308 35.3065 20.8223C35.3065 19.6431 36.2147 18.7422 37.3939 18.7422C38.5731 18.7422 39.4813 19.6577 39.4813 20.8516C39.4813 22.0308 38.5951 22.895 37.3866 22.895Z" fill="black"/>
<path d="M44.6965 28.1538C45.3923 28.1538 45.8683 27.6558 45.8683 26.9966C45.8683 26.3301 45.3923 25.8394 44.6965 25.8394C44.008 25.8394 43.5246 26.3301 43.5246 26.9966C43.5246 27.6558 44.008 28.1538 44.6965 28.1538ZM44.6965 22.6606C45.3923 22.6606 45.8683 22.1699 45.8683 21.5107C45.8683 20.8442 45.3923 20.3535 44.6965 20.3535C44.008 20.3535 43.5246 20.8442 43.5246 21.5107C43.5246 22.1699 44.008 22.6606 44.6965 22.6606Z" fill="black"/>
<path d="M52.7241 28H54.5332V26.0298H55.9614V24.4331H54.5332V17.4312H51.8672C49.9995 20.2437 48.5127 22.5947 47.5605 24.3452V26.0298H52.7241V28ZM49.311 24.3672C50.5415 22.1992 51.6401 20.4634 52.6509 18.9692H52.7534V24.4771H49.311V24.3672Z" fill="black"/>
<path d="M59.99 28H61.8797V17.4312H59.9973L57.2361 19.3647V21.1812L59.8655 19.3354H59.99V28Z" fill="black"/>
</g>
<rect x="-24" y="305" width="420" height="462" rx="12" fill="white"/>
<path d="M109.578 217L117.002 195.88H123.594L130.986 217H125.322L121.194 203.432L120.266 200.104H120.202L119.338 203.4L115.114 217H109.578ZM114.41 212.232V208.488H126.154V212.232H114.41ZM137.869 217.32C136.546 217.32 135.383 217 134.381 216.36C133.399 215.699 132.631 214.749 132.077 213.512C131.543 212.275 131.277 210.792 131.277 209.064C131.277 207.272 131.554 205.757 132.109 204.52C132.685 203.283 133.474 202.333 134.477 201.672C135.501 201.011 136.674 200.68 137.997 200.68C139.447 200.68 140.61 201.128 141.485 202.024C142.381 202.899 142.957 204.019 143.213 205.384L142.701 206.056V194.216H148.141V217H143.277L142.925 211.56L143.565 212.04C143.437 213.107 143.106 214.035 142.573 214.824C142.061 215.613 141.399 216.232 140.589 216.68C139.799 217.107 138.893 217.32 137.869 217.32ZM139.757 213.32C140.375 213.32 140.898 213.16 141.325 212.84C141.773 212.499 142.114 211.997 142.349 211.336C142.583 210.675 142.701 209.864 142.701 208.904C142.701 208.008 142.583 207.251 142.349 206.632C142.135 205.992 141.805 205.512 141.357 205.192C140.93 204.851 140.407 204.68 139.789 204.68C138.85 204.68 138.103 205.032 137.549 205.736C137.015 206.419 136.749 207.507 136.749 209C136.749 210.493 137.015 211.592 137.549 212.296C138.082 212.979 138.818 213.32 139.757 213.32ZM157.291 217.32C155.969 217.32 154.806 217 153.803 216.36C152.822 215.699 152.054 214.749 151.499 213.512C150.966 212.275 150.699 210.792 150.699 209.064C150.699 207.272 150.977 205.757 151.531 204.52C152.107 203.283 152.897 202.333 153.899 201.672C154.923 201.011 156.097 200.68 157.419 200.68C158.87 200.68 160.033 201.128 160.907 202.024C161.803 202.899 162.379 204.019 162.635 205.384L162.123 206.056V194.216H167.563V217H162.699L162.347 211.56L162.987 212.04C162.859 213.107 162.529 214.035 161.995 214.824C161.483 215.613 160.822 216.232 160.011 216.68C159.222 217.107 158.315 217.32 157.291 217.32ZM159.179 213.32C159.798 213.32 160.321 213.16 160.747 212.84C161.195 212.499 161.537 211.997 161.771 211.336C162.006 210.675 162.123 209.864 162.123 208.904C162.123 208.008 162.006 207.251 161.771 206.632C161.558 205.992 161.227 205.512 160.779 205.192C160.353 204.851 159.83 204.68 159.211 204.68C158.273 204.68 157.526 205.032 156.971 205.736C156.438 206.419 156.171 207.507 156.171 209C156.171 210.493 156.438 211.592 156.971 212.296C157.505 212.979 158.241 213.32 159.179 213.32ZM173.546 199.144C172.436 199.144 171.626 198.941 171.114 198.536C170.623 198.109 170.378 197.448 170.378 196.552C170.378 195.635 170.623 194.973 171.114 194.568C171.626 194.141 172.436 193.928 173.546 193.928C174.634 193.928 175.434 194.141 175.946 194.568C176.458 194.973 176.714 195.635 176.714 196.552C176.714 197.448 176.458 198.109 175.946 198.536C175.434 198.941 174.634 199.144 173.546 199.144ZM176.266 201V217H170.826V201H176.266ZM186.186 195.912V211.304C186.186 212.072 186.368 212.627 186.73 212.968C187.114 213.288 187.637 213.448 188.298 213.448C188.81 213.448 189.248 213.395 189.61 213.288C189.994 213.16 190.336 212.979 190.634 212.744L191.21 216.104C190.677 216.488 190.005 216.787 189.194 217C188.384 217.213 187.552 217.32 186.698 217.32C185.482 217.32 184.426 217.149 183.53 216.808C182.656 216.467 181.973 215.923 181.482 215.176C181.013 214.429 180.768 213.437 180.746 212.2V197.416L186.186 195.912ZM190.954 201V204.872H177.994V201H190.954ZM195.547 199.144C194.438 199.144 193.627 198.941 193.115 198.536C192.624 198.109 192.379 197.448 192.379 196.552C192.379 195.635 192.624 194.973 193.115 194.568C193.627 194.141 194.438 193.928 195.547 193.928C196.635 193.928 197.435 194.141 197.947 194.568C198.459 194.973 198.715 195.635 198.715 196.552C198.715 197.448 198.459 198.109 197.947 198.536C197.435 198.941 196.635 199.144 195.547 199.144ZM198.267 201V217H192.827V201H198.267ZM209.116 200.68C210.801 200.68 212.273 201.011 213.532 201.672C214.812 202.312 215.804 203.261 216.508 204.52C217.233 205.757 217.596 207.251 217.596 209C217.596 210.749 217.233 212.253 216.508 213.512C215.804 214.749 214.812 215.699 213.532 216.36C212.273 217 210.801 217.32 209.116 217.32C207.473 217.32 206.012 217 204.732 216.36C203.452 215.699 202.449 214.749 201.724 213.512C201.02 212.253 200.668 210.749 200.668 209C200.668 207.251 201.02 205.757 201.724 204.52C202.449 203.261 203.452 202.312 204.732 201.672C206.012 201.011 207.473 200.68 209.116 200.68ZM209.116 204.552C208.497 204.552 207.964 204.701 207.516 205C207.068 205.299 206.726 205.779 206.492 206.44C206.257 207.101 206.14 207.955 206.14 209C206.14 210.045 206.257 210.899 206.492 211.56C206.726 212.2 207.068 212.68 207.516 213C207.964 213.299 208.497 213.448 209.116 213.448C209.756 213.448 210.3 213.299 210.748 213C211.196 212.68 211.537 212.2 211.772 211.56C212.006 210.899 212.124 210.045 212.124 209C212.124 207.955 212.006 207.101 211.772 206.44C211.537 205.779 211.196 205.299 210.748 205C210.3 204.701 209.756 204.552 209.116 204.552ZM220.016 217V201H224.88L225.168 206.504L224.56 205.896C224.773 204.744 225.146 203.784 225.68 203.016C226.234 202.248 226.917 201.672 227.728 201.288C228.56 200.883 229.488 200.68 230.512 200.68C231.621 200.68 232.581 200.893 233.392 201.32C234.224 201.747 234.874 202.376 235.344 203.208C235.813 204.04 236.048 205.085 236.048 206.344V217H230.608V207.784C230.608 206.675 230.394 205.907 229.968 205.48C229.541 205.053 228.997 204.84 228.336 204.84C227.824 204.84 227.344 204.968 226.896 205.224C226.448 205.459 226.096 205.843 225.84 206.376C225.584 206.909 225.456 207.624 225.456 208.52V217H220.016ZM248.147 206.856C248.147 206.109 247.934 205.523 247.507 205.096C247.102 204.648 246.547 204.424 245.843 204.424C245.139 204.424 244.531 204.605 244.019 204.968C243.529 205.309 243.187 205.928 242.995 206.824L238.387 205.736C238.686 204.2 239.475 202.973 240.755 202.056C242.035 201.139 243.838 200.68 246.163 200.68C247.721 200.68 249.043 200.915 250.131 201.384C251.241 201.832 252.083 202.515 252.659 203.432C253.257 204.328 253.555 205.437 253.555 206.76V212.616C253.555 213.448 253.929 213.864 254.675 213.864C255.059 213.864 255.369 213.821 255.603 213.736L255.283 216.84C254.643 217.139 253.865 217.288 252.947 217.288C252.115 217.288 251.379 217.16 250.739 216.904C250.099 216.627 249.598 216.221 249.235 215.688C248.873 215.133 248.691 214.44 248.691 213.608V213.416L249.299 213.192C249.299 214.109 249.022 214.877 248.467 215.496C247.934 216.115 247.23 216.573 246.355 216.872C245.502 217.171 244.606 217.32 243.667 217.32C242.579 217.32 241.63 217.149 240.819 216.808C240.009 216.467 239.379 215.976 238.931 215.336C238.505 214.675 238.291 213.864 238.291 212.904C238.291 211.752 238.633 210.803 239.315 210.056C240.019 209.288 241.118 208.755 242.611 208.456L248.659 207.208L248.627 210.088L245.555 210.728C244.915 210.856 244.435 211.048 244.115 211.304C243.817 211.539 243.667 211.901 243.667 212.392C243.667 212.861 243.838 213.213 244.179 213.448C244.521 213.683 244.926 213.8 245.395 213.8C245.758 213.8 246.099 213.747 246.419 213.64C246.761 213.533 247.059 213.373 247.315 213.16C247.571 212.925 247.774 212.637 247.923 212.296C248.073 211.955 248.147 211.549 248.147 211.08V206.856ZM262.487 194.216V211.56C262.487 212.264 262.604 212.765 262.839 213.064C263.073 213.363 263.468 213.512 264.023 213.512C264.343 213.512 264.609 213.491 264.823 213.448C265.036 213.405 265.292 213.341 265.591 213.256L265.239 216.52C264.855 216.755 264.353 216.947 263.735 217.096C263.116 217.245 262.508 217.32 261.911 217.32C260.204 217.32 258.967 216.925 258.199 216.136C257.431 215.347 257.047 214.056 257.047 212.264V194.216H262.487ZM125.092 255V233.88H141.54V238.136H130.596V242.424H139.3V246.424H130.596V250.744H141.956V255H125.092ZM148.959 239L152.863 246.2L154.655 246.04L160.959 255H154.719L150.687 247.704H148.799L142.687 239H148.959ZM160.831 239L154.783 247.64L152.767 247.512L148.575 255H142.463L148.895 245.976L150.751 246.232L154.719 239H160.831ZM162.459 261.72V239H167.355L167.643 244.792L167.003 244.12C167.152 243.053 167.483 242.115 167.995 241.304C168.507 240.493 169.168 239.853 169.979 239.384C170.79 238.915 171.718 238.68 172.763 238.68C174.086 238.68 175.238 239.011 176.219 239.672C177.2 240.312 177.958 241.251 178.491 242.488C179.046 243.704 179.323 245.187 179.323 246.936C179.323 248.685 179.046 250.189 178.491 251.448C177.936 252.707 177.158 253.667 176.155 254.328C175.174 254.989 174.022 255.32 172.699 255.32C171.248 255.32 170.075 254.893 169.179 254.04C168.283 253.165 167.686 252.067 167.387 250.744L167.899 249.976V261.72H162.459ZM170.843 251.32C171.782 251.32 172.518 250.979 173.051 250.296C173.584 249.592 173.851 248.493 173.851 247C173.851 245.507 173.584 244.419 173.051 243.736C172.539 243.032 171.814 242.68 170.875 242.68C170.278 242.68 169.755 242.851 169.307 243.192C168.859 243.512 168.507 243.992 168.251 244.632C168.016 245.272 167.899 246.061 167.899 247C167.899 247.896 168.006 248.675 168.219 249.336C168.454 249.976 168.795 250.467 169.243 250.808C169.691 251.149 170.224 251.32 170.843 251.32ZM189.689 255.32C187.919 255.32 186.383 254.989 185.081 254.328C183.801 253.667 182.809 252.717 182.105 251.48C181.401 250.243 181.049 248.749 181.049 247C181.049 245.251 181.401 243.757 182.105 242.52C182.809 241.283 183.791 240.333 185.049 239.672C186.329 239.011 187.791 238.68 189.433 238.68C191.119 238.68 192.548 239.011 193.721 239.672C194.916 240.312 195.823 241.208 196.441 242.36C197.06 243.491 197.369 244.792 197.369 246.264C197.369 246.648 197.359 247.032 197.337 247.416C197.316 247.8 197.284 248.12 197.241 248.376H184.569V245.464H194.841L192.249 246.456C192.249 245.176 192.015 244.195 191.545 243.512C191.097 242.829 190.393 242.488 189.433 242.488C188.751 242.488 188.164 242.648 187.673 242.968C187.204 243.288 186.841 243.789 186.585 244.472C186.351 245.155 186.233 246.029 186.233 247.096C186.233 248.141 186.372 248.995 186.649 249.656C186.927 250.296 187.321 250.765 187.833 251.064C188.345 251.341 188.964 251.48 189.689 251.48C190.5 251.48 191.14 251.32 191.609 251C192.1 250.68 192.463 250.232 192.697 249.656L197.049 251.096C196.751 252.013 196.228 252.792 195.481 253.432C194.756 254.051 193.881 254.52 192.857 254.84C191.855 255.16 190.799 255.32 189.689 255.32ZM199.773 255V239H204.637L204.925 244.504L204.317 243.896C204.53 242.744 204.903 241.784 205.437 241.016C205.991 240.248 206.674 239.672 207.485 239.288C208.317 238.883 209.245 238.68 210.269 238.68C211.378 238.68 212.338 238.893 213.149 239.32C213.981 239.747 214.631 240.376 215.101 241.208C215.57 242.04 215.805 243.085 215.805 244.344V255H210.365V245.784C210.365 244.675 210.151 243.907 209.725 243.48C209.298 243.053 208.754 242.84 208.093 242.84C207.581 242.84 207.101 242.968 206.653 243.224C206.205 243.459 205.853 243.843 205.597 244.376C205.341 244.909 205.213 245.624 205.213 246.52V255H199.773ZM225.696 255.32C224.096 255.32 222.603 255.064 221.216 254.552C219.851 254.019 218.72 253.261 217.824 252.28L220.384 249.272C220.918 249.955 221.622 250.531 222.496 251C223.392 251.448 224.384 251.672 225.472 251.672C226.134 251.672 226.678 251.576 227.104 251.384C227.531 251.192 227.744 250.893 227.744 250.488C227.744 250.189 227.638 249.955 227.424 249.784C227.211 249.592 226.784 249.432 226.144 249.304L223.904 248.856C221.899 248.451 220.47 247.853 219.616 247.064C218.784 246.253 218.368 245.197 218.368 243.896C218.368 243.021 218.635 242.189 219.168 241.4C219.702 240.589 220.523 239.939 221.632 239.448C222.742 238.936 224.16 238.68 225.888 238.68C227.51 238.68 228.939 238.915 230.176 239.384C231.414 239.853 232.395 240.536 233.12 241.432L230.528 244.376C230.016 243.736 229.355 243.235 228.544 242.872C227.734 242.509 226.923 242.328 226.112 242.328C225.6 242.328 225.163 242.381 224.8 242.488C224.459 242.573 224.203 242.701 224.032 242.872C223.862 243.043 223.776 243.256 223.776 243.512C223.776 243.789 223.904 244.035 224.16 244.248C224.438 244.44 224.939 244.611 225.664 244.76L228.576 245.336C230.219 245.635 231.403 246.179 232.128 246.968C232.854 247.757 233.216 248.707 233.216 249.816C233.216 250.861 232.939 251.8 232.384 252.632C231.83 253.464 230.998 254.125 229.888 254.616C228.779 255.085 227.382 255.32 225.696 255.32ZM243.113 255.32C241.342 255.32 239.806 254.989 238.505 254.328C237.225 253.667 236.233 252.717 235.529 251.48C234.825 250.243 234.473 248.749 234.473 247C234.473 245.251 234.825 243.757 235.529 242.52C236.233 241.283 237.214 240.333 238.473 239.672C239.753 239.011 241.214 238.68 242.857 238.68C244.542 238.68 245.972 239.011 247.145 239.672C248.34 240.312 249.246 241.208 249.865 242.36C250.484 243.491 250.793 244.792 250.793 246.264C250.793 246.648 250.782 247.032 250.761 247.416C250.74 247.8 250.708 248.12 250.665 248.376H237.993V245.464H248.265L245.673 246.456C245.673 245.176 245.438 244.195 244.969 243.512C244.521 242.829 243.817 242.488 242.857 242.488C242.174 242.488 241.588 242.648 241.097 242.968C240.628 243.288 240.265 243.789 240.009 244.472C239.774 245.155 239.657 246.029 239.657 247.096C239.657 248.141 239.796 248.995 240.073 249.656C240.35 250.296 240.745 250.765 241.257 251.064C241.769 251.341 242.388 251.48 243.113 251.48C243.924 251.48 244.564 251.32 245.033 251C245.524 250.68 245.886 250.232 246.121 249.656L250.473 251.096C250.174 252.013 249.652 252.792 248.905 253.432C248.18 254.051 247.305 254.52 246.281 254.84C245.278 255.16 244.222 255.32 243.113 255.32Z" fill="black"/>
<line x1="85" y1="434.5" x2="297.002" y2="434.5" stroke="#DADADA"/>
<rect x="70" y="614" width="234" height="43" rx="12" fill="#A5A6F6"/>
<path d="M179.508 638.39H176.008L175.476 640H172.592L176.19 630.13H179.354L182.938 640H180.04L179.508 638.39ZM178.822 636.29L177.758 633.098L176.708 636.29H178.822ZM183.105 636.066C183.105 635.254 183.249 634.545 183.539 633.938C183.837 633.331 184.243 632.865 184.757 632.538C185.27 632.211 185.839 632.048 186.465 632.048C186.969 632.048 187.417 632.155 187.809 632.37C188.21 632.575 188.523 632.86 188.747 633.224V629.64H191.505V640H188.747V638.908C188.532 639.272 188.229 639.561 187.837 639.776C187.445 639.991 186.983 640.098 186.451 640.098C185.825 640.098 185.256 639.935 184.743 639.608C184.239 639.281 183.837 638.815 183.539 638.208C183.249 637.592 183.105 636.878 183.105 636.066ZM188.761 636.066C188.761 635.562 188.621 635.165 188.341 634.876C188.07 634.587 187.734 634.442 187.333 634.442C186.922 634.442 186.581 634.587 186.311 634.876C186.04 635.156 185.905 635.553 185.905 636.066C185.905 636.57 186.04 636.971 186.311 637.27C186.581 637.559 186.922 637.704 187.333 637.704C187.734 637.704 188.07 637.559 188.341 637.27C188.621 636.981 188.761 636.579 188.761 636.066ZM192.34 636.066C192.34 635.254 192.485 634.545 192.774 633.938C193.073 633.331 193.479 632.865 193.992 632.538C194.506 632.211 195.075 632.048 195.7 632.048C196.204 632.048 196.652 632.155 197.044 632.37C197.446 632.575 197.758 632.86 197.982 633.224V629.64H200.74V640H197.982V638.908C197.768 639.272 197.464 639.561 197.072 639.776C196.68 639.991 196.218 640.098 195.686 640.098C195.061 640.098 194.492 639.935 193.978 639.608C193.474 639.281 193.073 638.815 192.774 638.208C192.485 637.592 192.34 636.878 192.34 636.066ZM197.996 636.066C197.996 635.562 197.856 635.165 197.576 634.876C197.306 634.587 196.97 634.442 196.568 634.442C196.158 634.442 195.817 634.587 195.546 634.876C195.276 635.156 195.14 635.553 195.14 636.066C195.14 636.57 195.276 636.971 195.546 637.27C195.817 637.559 196.158 637.704 196.568 637.704C196.97 637.704 197.306 637.559 197.576 637.27C197.856 636.981 197.996 636.579 197.996 636.066Z" fill="black"/>
<path d="M168.414 405.88V427H162.302L155.742 415.576L154.142 412.44H154.11L154.238 416.344V427H149.374V405.88H155.486L162.046 417.304L163.646 420.44H163.678L163.55 416.536V405.88H168.414ZM180.934 416.856C180.934 416.109 180.721 415.523 180.294 415.096C179.889 414.648 179.334 414.424 178.63 414.424C177.926 414.424 177.318 414.605 176.806 414.968C176.316 415.309 175.974 415.928 175.782 416.824L171.174 415.736C171.473 414.2 172.262 412.973 173.542 412.056C174.822 411.139 176.625 410.68 178.95 410.68C180.508 410.68 181.83 410.915 182.918 411.384C184.028 411.832 184.87 412.515 185.446 413.432C186.044 414.328 186.342 415.437 186.342 416.76V422.616C186.342 423.448 186.716 423.864 187.462 423.864C187.846 423.864 188.156 423.821 188.39 423.736L188.07 426.84C187.43 427.139 186.652 427.288 185.734 427.288C184.902 427.288 184.166 427.16 183.526 426.904C182.886 426.627 182.385 426.221 182.022 425.688C181.66 425.133 181.478 424.44 181.478 423.608V423.416L182.086 423.192C182.086 424.109 181.809 424.877 181.254 425.496C180.721 426.115 180.017 426.573 179.142 426.872C178.289 427.171 177.393 427.32 176.454 427.32C175.366 427.32 174.417 427.149 173.606 426.808C172.796 426.467 172.166 425.976 171.718 425.336C171.292 424.675 171.078 423.864 171.078 422.904C171.078 421.752 171.42 420.803 172.102 420.056C172.806 419.288 173.905 418.755 175.398 418.456L181.446 417.208L181.414 420.088L178.342 420.728C177.702 420.856 177.222 421.048 176.902 421.304C176.604 421.539 176.454 421.901 176.454 422.392C176.454 422.861 176.625 423.213 176.966 423.448C177.308 423.683 177.713 423.8 178.182 423.8C178.545 423.8 178.886 423.747 179.206 423.64C179.548 423.533 179.846 423.373 180.102 423.16C180.358 422.925 180.561 422.637 180.71 422.296C180.86 421.955 180.934 421.549 180.934 421.08V416.856ZM189.898 427V411H194.762L194.922 414.104C195.434 412.973 196.148 412.12 197.066 411.544C198.004 410.968 199.082 410.68 200.298 410.68C201.492 410.68 202.527 410.947 203.402 411.48C204.276 412.013 204.927 412.803 205.354 413.848C205.695 413.144 206.132 412.557 206.666 412.088C207.22 411.619 207.85 411.267 208.554 411.032C209.258 410.797 209.983 410.68 210.73 410.68C211.796 410.68 212.735 410.893 213.546 411.32C214.356 411.725 214.996 412.355 215.466 413.208C215.956 414.04 216.202 415.085 216.202 416.344V427H210.762V417.592C210.762 416.568 210.559 415.853 210.154 415.448C209.77 415.043 209.247 414.84 208.586 414.84C208.052 414.84 207.562 414.979 207.114 415.256C206.687 415.512 206.356 415.907 206.122 416.44C205.887 416.973 205.77 417.645 205.77 418.456V427H200.33V417.592C200.33 416.568 200.127 415.853 199.722 415.448C199.316 415.043 198.794 414.84 198.154 414.84C197.663 414.84 197.194 414.968 196.746 415.224C196.319 415.48 195.978 415.885 195.722 416.44C195.466 416.973 195.338 417.677 195.338 418.552V427H189.898ZM227.191 427.32C225.42 427.32 223.884 426.989 222.583 426.328C221.303 425.667 220.311 424.717 219.607 423.48C218.903 422.243 218.551 420.749 218.551 419C218.551 417.251 218.903 415.757 219.607 414.52C220.311 413.283 221.292 412.333 222.551 411.672C223.831 411.011 225.292 410.68 226.935 410.68C228.62 410.68 230.049 411.011 231.223 411.672C232.417 412.312 233.324 413.208 233.943 414.36C234.561 415.491 234.871 416.792 234.871 418.264C234.871 418.648 234.86 419.032 234.839 419.416C234.817 419.8 234.785 420.12 234.743 420.376H222.071V417.464H232.343L229.751 418.456C229.751 417.176 229.516 416.195 229.047 415.512C228.599 414.829 227.895 414.488 226.935 414.488C226.252 414.488 225.665 414.648 225.175 414.968C224.705 415.288 224.343 415.789 224.087 416.472C223.852 417.155 223.735 418.029 223.735 419.096C223.735 420.141 223.873 420.995 224.151 421.656C224.428 422.296 224.823 422.765 225.335 423.064C225.847 423.341 226.465 423.48 227.191 423.48C228.001 423.48 228.641 423.32 229.111 423C229.601 422.68 229.964 422.232 230.199 421.656L234.551 423.096C234.252 424.013 233.729 424.792 232.983 425.432C232.257 426.051 231.383 426.52 230.359 426.84C229.356 427.16 228.3 427.32 227.191 427.32Z" fill="#E3E0E0"/>
<line x1="85" y1="530.5" x2="297.002" y2="530.5" stroke="#DADADA"/>
<path d="M180.073 525.816V522.904C178.366 522.733 176.798 522.328 175.369 521.688C173.961 521.048 172.82 520.259 171.945 519.32L174.537 515.736C175.113 516.547 175.902 517.219 176.905 517.752C177.908 518.285 178.964 518.648 180.073 518.84V514.392L178.761 514.072C177.033 513.667 175.614 513.027 174.505 512.152C173.417 511.256 172.873 510.051 172.873 508.536C172.873 506.808 173.502 505.347 174.761 504.152C176.02 502.936 177.79 502.2 180.073 501.944V499.064H183.433V501.944C186.377 502.264 188.756 503.405 190.569 505.368L188.073 508.6C187.412 507.896 186.697 507.32 185.929 506.872C185.182 506.424 184.35 506.115 183.433 505.944V510.52L184.489 510.744C186.516 511.192 188.009 511.853 188.969 512.728C189.929 513.581 190.409 514.765 190.409 516.28C190.409 518.2 189.758 519.725 188.457 520.856C187.177 521.965 185.502 522.648 183.433 522.904V525.816H180.073ZM177.801 507.8C177.801 508.227 177.94 508.6 178.217 508.92C178.516 509.219 179.134 509.496 180.073 509.752V505.848C179.284 505.976 178.708 506.221 178.345 506.584C177.982 506.925 177.801 507.331 177.801 507.8ZM185.641 516.984C185.641 516.579 185.47 516.227 185.129 515.928C184.809 515.629 184.244 515.384 183.433 515.192V518.936C184.905 518.68 185.641 518.029 185.641 516.984ZM201.437 523.32C198.557 523.32 196.37 522.403 194.877 520.568C193.405 518.733 192.669 516.024 192.669 512.44C192.669 508.856 193.405 506.147 194.877 504.312C196.37 502.477 198.557 501.56 201.437 501.56C204.317 501.56 206.493 502.477 207.965 504.312C209.458 506.147 210.205 508.856 210.205 512.44C210.205 516.024 209.458 518.733 207.965 520.568C206.493 522.403 204.317 523.32 201.437 523.32ZM201.437 519.032C202.61 519.032 203.453 518.531 203.965 517.528C204.498 516.504 204.765 514.808 204.765 512.44C204.765 510.072 204.498 508.387 203.965 507.384C203.453 506.36 202.61 505.848 201.437 505.848C200.264 505.848 199.41 506.36 198.877 507.384C198.365 508.387 198.109 510.072 198.109 512.44C198.109 514.808 198.365 516.504 198.877 517.528C199.41 518.531 200.264 519.032 201.437 519.032Z" fill="#E3E0E0"/>
<g filter="url(#filter0_d)">
<rect width="375" height="60" transform="translate(0 752)" fill="white"/>
<path d="M318.98 796.516H316.597L316.062 798H315.289L317.46 792.312H318.117L320.292 798H319.523L318.98 796.516ZM316.824 795.898H318.757L317.789 793.238L316.824 795.898ZM322.48 797.488C322.738 797.488 322.963 797.41 323.156 797.254C323.349 797.098 323.455 796.902 323.476 796.668H324.16C324.147 796.91 324.063 797.141 323.91 797.359C323.756 797.578 323.55 797.753 323.293 797.883C323.037 798.013 322.767 798.078 322.48 798.078C321.905 798.078 321.446 797.887 321.105 797.504C320.767 797.118 320.597 796.592 320.597 795.926V795.805C320.597 795.393 320.673 795.027 320.824 794.707C320.975 794.387 321.191 794.138 321.472 793.961C321.756 793.784 322.091 793.695 322.476 793.695C322.95 793.695 323.343 793.837 323.656 794.121C323.971 794.405 324.139 794.773 324.16 795.227H323.476C323.455 794.953 323.351 794.729 323.164 794.555C322.979 794.378 322.75 794.289 322.476 794.289C322.109 794.289 321.824 794.422 321.621 794.688C321.42 794.951 321.32 795.332 321.32 795.832V795.969C321.32 796.456 321.42 796.831 321.621 797.094C321.821 797.357 322.108 797.488 322.48 797.488ZM326.508 797.488C326.765 797.488 326.991 797.41 327.183 797.254C327.376 797.098 327.483 796.902 327.504 796.668H328.187C328.174 796.91 328.091 797.141 327.937 797.359C327.784 797.578 327.578 797.753 327.32 797.883C327.065 798.013 326.794 798.078 326.508 798.078C325.932 798.078 325.474 797.887 325.133 797.504C324.794 797.118 324.625 796.592 324.625 795.926V795.805C324.625 795.393 324.7 795.027 324.851 794.707C325.002 794.387 325.219 794.138 325.5 793.961C325.784 793.784 326.118 793.695 326.504 793.695C326.978 793.695 327.371 793.837 327.683 794.121C327.999 794.405 328.167 794.773 328.187 795.227H327.504C327.483 794.953 327.379 794.729 327.191 794.555C327.006 794.378 326.777 794.289 326.504 794.289C326.137 794.289 325.851 794.422 325.648 794.688C325.448 794.951 325.347 795.332 325.347 795.832V795.969C325.347 796.456 325.448 796.831 325.648 797.094C325.849 797.357 326.135 797.488 326.508 797.488ZM328.648 795.848C328.648 795.434 328.729 795.061 328.891 794.73C329.055 794.4 329.281 794.145 329.57 793.965C329.862 793.785 330.194 793.695 330.566 793.695C331.142 793.695 331.607 793.895 331.961 794.293C332.318 794.691 332.496 795.221 332.496 795.883V795.934C332.496 796.345 332.417 796.715 332.258 797.043C332.102 797.368 331.876 797.622 331.582 797.805C331.29 797.987 330.954 798.078 330.574 798.078C330.001 798.078 329.536 797.879 329.18 797.48C328.826 797.082 328.648 796.555 328.648 795.898V795.848ZM329.375 795.934C329.375 796.402 329.483 796.779 329.699 797.062C329.918 797.346 330.21 797.488 330.574 797.488C330.941 797.488 331.233 797.345 331.449 797.059C331.665 796.77 331.773 796.366 331.773 795.848C331.773 795.384 331.663 795.009 331.441 794.723C331.223 794.434 330.931 794.289 330.566 794.289C330.21 794.289 329.922 794.431 329.703 794.715C329.484 794.999 329.375 795.405 329.375 795.934ZM335.852 797.582C335.57 797.913 335.158 798.078 334.613 798.078C334.163 798.078 333.819 797.948 333.582 797.688C333.348 797.424 333.229 797.036 333.227 796.523V793.773H333.949V796.504C333.949 797.145 334.21 797.465 334.731 797.465C335.283 797.465 335.65 797.259 335.832 796.848V793.773H336.555V798H335.867L335.852 797.582ZM338.18 793.773L338.203 794.305C338.526 793.898 338.948 793.695 339.469 793.695C340.362 793.695 340.813 794.199 340.821 795.207V798H340.098V795.203C340.095 794.898 340.025 794.673 339.887 794.527C339.752 794.382 339.539 794.309 339.25 794.309C339.016 794.309 338.81 794.371 338.633 794.496C338.456 794.621 338.318 794.785 338.219 794.988V798H337.496V793.773H338.18ZM342.731 792.75V793.773H343.52V794.332H342.731V796.953C342.731 797.122 342.766 797.25 342.836 797.336C342.907 797.419 343.027 797.461 343.196 797.461C343.279 797.461 343.394 797.445 343.54 797.414V798C343.349 798.052 343.165 798.078 342.985 798.078C342.662 798.078 342.418 797.98 342.254 797.785C342.09 797.59 342.008 797.312 342.008 796.953V794.332H341.239V793.773H342.008V792.75H342.731Z" fill="black"/>
<path d="M123.66 798V792.312H125.52C126.137 792.312 126.6 792.44 126.91 792.695C127.223 792.951 127.379 793.328 127.379 793.828C127.379 794.094 127.303 794.329 127.152 794.535C127.001 794.738 126.796 794.896 126.535 795.008C126.842 795.094 127.085 795.258 127.262 795.5C127.441 795.74 127.531 796.026 127.531 796.359C127.531 796.87 127.366 797.271 127.035 797.562C126.704 797.854 126.237 798 125.633 798H123.66ZM124.41 795.34V797.387H125.648C125.997 797.387 126.272 797.297 126.473 797.117C126.676 796.935 126.777 796.685 126.777 796.367C126.777 795.682 126.405 795.34 125.66 795.34H124.41ZM124.41 794.738H125.543C125.871 794.738 126.133 794.656 126.328 794.492C126.526 794.328 126.625 794.105 126.625 793.824C126.625 793.512 126.534 793.285 126.352 793.145C126.169 793.001 125.892 792.93 125.52 792.93H124.41V794.738ZM130.981 797.582C130.699 797.913 130.287 798.078 129.742 798.078C129.292 798.078 128.948 797.948 128.711 797.688C128.477 797.424 128.358 797.036 128.356 796.523V793.773H129.078V796.504C129.078 797.145 129.339 797.465 129.86 797.465C130.412 797.465 130.779 797.259 130.961 796.848V793.773H131.684V798H130.996L130.981 797.582ZM132.45 795.852C132.45 795.203 132.603 794.682 132.91 794.289C133.218 793.893 133.62 793.695 134.118 793.695C134.612 793.695 135.004 793.865 135.293 794.203V792H136.016V798H135.352L135.317 797.547C135.028 797.901 134.625 798.078 134.11 798.078C133.62 798.078 133.22 797.878 132.91 797.477C132.603 797.076 132.45 796.552 132.45 795.906V795.852ZM133.172 795.934C133.172 796.413 133.271 796.788 133.469 797.059C133.667 797.329 133.94 797.465 134.289 797.465C134.748 797.465 135.082 797.259 135.293 796.848V794.906C135.077 794.508 134.745 794.309 134.297 794.309C133.943 794.309 133.667 794.445 133.469 794.719C133.271 794.992 133.172 795.397 133.172 795.934ZM136.809 795.852C136.809 795.193 136.961 794.669 137.266 794.281C137.571 793.891 137.974 793.695 138.477 793.695C138.993 793.695 139.395 793.878 139.684 794.242L139.719 793.773H140.379V797.898C140.379 798.445 140.217 798.876 139.891 799.191C139.568 799.507 139.133 799.664 138.586 799.664C138.282 799.664 137.984 799.599 137.692 799.469C137.4 799.339 137.178 799.16 137.024 798.934L137.399 798.5C137.709 798.883 138.088 799.074 138.536 799.074C138.887 799.074 139.161 798.975 139.356 798.777C139.554 798.579 139.653 798.301 139.653 797.941V797.578C139.364 797.911 138.969 798.078 138.469 798.078C137.974 798.078 137.573 797.879 137.266 797.48C136.961 797.082 136.809 796.539 136.809 795.852ZM137.536 795.934C137.536 796.41 137.633 796.785 137.829 797.059C138.024 797.329 138.297 797.465 138.649 797.465C139.105 797.465 139.439 797.258 139.653 796.844V794.914C139.431 794.51 139.099 794.309 138.657 794.309C138.305 794.309 138.03 794.445 137.833 794.719C137.635 794.992 137.536 795.397 137.536 795.934ZM143.067 798.078C142.494 798.078 142.028 797.891 141.669 797.516C141.309 797.138 141.13 796.634 141.13 796.004V795.871C141.13 795.452 141.209 795.078 141.368 794.75C141.529 794.419 141.753 794.161 142.04 793.977C142.329 793.789 142.641 793.695 142.977 793.695C143.527 793.695 143.954 793.876 144.258 794.238C144.563 794.6 144.715 795.118 144.715 795.793V796.094H141.852C141.863 796.51 141.984 796.848 142.215 797.105C142.45 797.361 142.747 797.488 143.106 797.488C143.361 797.488 143.577 797.436 143.755 797.332C143.932 797.228 144.087 797.09 144.219 796.918L144.661 797.262C144.307 797.806 143.775 798.078 143.067 798.078ZM142.977 794.289C142.686 794.289 142.441 794.396 142.243 794.609C142.045 794.82 141.923 795.117 141.876 795.5H143.993V795.445C143.972 795.078 143.873 794.794 143.696 794.594C143.519 794.391 143.279 794.289 142.977 794.289ZM146.376 792.75V793.773H147.165V794.332H146.376V796.953C146.376 797.122 146.411 797.25 146.481 797.336C146.552 797.419 146.671 797.461 146.841 797.461C146.924 797.461 147.039 797.445 147.184 797.414V798C146.994 798.052 146.809 798.078 146.63 798.078C146.307 798.078 146.063 797.98 145.899 797.785C145.735 797.59 145.653 797.312 145.653 796.953V794.332H144.884V793.773H145.653V792.75H146.376Z" fill="black"/>
<path d="M139.562 766.149V773.438L146.846 773.418C146.477 771.643 145.588 769.995 144.289 768.7C142.994 767.409 141.352 766.523 139.562 766.149Z" fill="black" fill-opacity="0.15"/>
<path d="M130.937 788.105C129.585 787.534 128.369 786.713 127.327 785.671C126.289 784.636 125.462 783.41 124.892 782.06C124.301 780.663 123.997 779.16 124 777.643V777.648C123.998 779.139 124.291 780.615 124.862 781.992C125.432 783.37 126.269 784.621 127.324 785.674C128.366 786.716 129.579 787.534 130.932 788.105C132.33 788.699 133.833 789.003 135.352 789C136.119 789 136.875 788.924 137.616 788.776C136.88 788.924 136.128 788.997 135.363 788.997C133.829 789 132.341 788.699 130.937 788.105ZM137.863 775.364C137.738 775.364 137.636 775.262 137.636 775.137V764.225C137.636 764.188 137.645 764.154 137.662 764.123C137.636 764.16 137.619 764.205 137.619 764.254V775.154C137.619 775.279 137.721 775.381 137.846 775.381L148.744 775.353C148.789 775.353 148.832 775.339 148.869 775.316C148.84 775.33 148.806 775.336 148.772 775.336L137.863 775.364Z" fill="black" fill-opacity="0.15"/>
<path d="M134.397 768.254C132.241 768.47 130.244 769.416 128.693 770.967C126.912 772.748 125.932 775.117 125.932 777.637C125.932 780.157 126.912 782.526 128.693 784.307C130.463 786.077 132.815 787.057 135.318 787.069C137.824 787.08 140.224 786.1 142.002 784.336C143.573 782.779 144.528 780.77 144.747 778.603H134.397V768.254Z" fill="black" fill-opacity="0.15"/>
<path d="M146.499 776.671H136.329V766.501C136.329 766.376 136.227 766.274 136.102 766.274H135.363C133.871 766.271 132.393 766.564 131.014 767.135C129.635 767.706 128.383 768.544 127.329 769.6C126.292 770.635 125.465 771.861 124.895 773.211C124.302 774.611 123.997 776.117 124 777.637V777.643C124 779.174 124.301 780.66 124.892 782.06C125.463 783.412 126.284 784.628 127.327 785.671C128.369 786.714 129.585 787.535 130.937 788.106C132.337 788.699 133.843 789.003 135.363 789C136.128 789 136.88 788.927 137.616 788.779C138.358 788.628 139.085 788.407 139.787 788.108C141.139 787.537 142.355 786.716 143.397 785.674C144.44 784.631 145.261 783.415 145.832 782.063C146.425 780.663 146.729 779.158 146.727 777.637V776.898C146.727 776.773 146.624 776.671 146.499 776.671ZM142.002 784.336C141.123 785.209 140.079 785.899 138.932 786.368C137.785 786.837 136.557 787.075 135.318 787.069C132.815 787.057 130.463 786.077 128.693 784.307C126.912 782.526 125.932 780.157 125.932 777.637C125.932 775.117 126.912 772.748 128.693 770.967C130.244 769.416 132.241 768.47 134.397 768.254V778.603H144.747C144.528 780.77 143.573 782.779 142.002 784.336Z" fill="black"/>
<path d="M148.999 775.092L148.925 774.29C148.684 771.674 147.522 769.205 145.653 767.342C143.782 765.475 141.319 764.319 138.687 764.075L137.883 764.001C137.787 763.992 137.701 764.044 137.662 764.123C137.646 764.155 137.637 764.19 137.636 764.225V775.137C137.636 775.262 137.738 775.364 137.863 775.364L148.772 775.336C148.806 775.336 148.837 775.327 148.869 775.316C148.911 775.296 148.945 775.264 148.969 775.224C148.992 775.184 149.003 775.138 148.999 775.092ZM139.562 773.438V766.149C141.352 766.523 142.994 767.409 144.289 768.7C145.587 769.995 146.477 771.643 146.846 773.418L139.562 773.438Z" fill="black"/>
<path d="M25 776.387C25 776.922 25.4088 777.384 26.063 777.384C26.3798 777.384 26.666 777.209 26.9215 777.004L28.0867 776.017V785.575C28.0867 787.096 28.9963 788 30.5601 788H44.3888C45.9424 788 46.8622 787.096 46.8622 785.575V775.966L48.0887 777.004C48.334 777.209 48.6202 777.384 48.937 777.384C49.5401 777.384 50 777.004 50 776.408C50 776.058 49.8671 775.781 49.6014 775.555L46.8622 773.232V768.854C46.8622 768.392 46.5658 768.104 46.1059 768.104H44.6954C44.2457 768.104 43.9391 768.392 43.9391 768.854V770.766L38.9616 766.563C38.0724 765.812 36.9481 765.812 36.0589 766.563L25.4088 775.555C25.1329 775.781 25 776.089 25 776.387ZM40.4436 779.224C40.4436 778.741 40.137 778.432 39.6566 778.432H35.3639C34.8835 778.432 34.5666 778.741 34.5666 779.224V785.955H31.1018C30.4681 785.955 30.1206 785.595 30.1206 784.948V774.301L37.0605 768.443C37.3467 768.197 37.6738 768.197 37.9599 768.443L44.8181 774.239V784.948C44.8181 785.595 44.4706 785.955 43.8369 785.955H40.4436V779.224Z" fill="#1C1C1E"/>
<path d="M32.0312 798H31.2773V795.371H28.4102V798H27.6602V792.312H28.4102V794.758H31.2773V792.312H32.0312V798ZM32.8986 795.848C32.8986 795.434 32.9793 795.061 33.1408 794.73C33.3048 794.4 33.5314 794.145 33.8205 793.965C34.1121 793.785 34.4442 793.695 34.8166 793.695C35.3921 793.695 35.8569 793.895 36.2111 794.293C36.5679 794.691 36.7463 795.221 36.7463 795.883V795.934C36.7463 796.345 36.6668 796.715 36.508 797.043C36.3517 797.368 36.1265 797.622 35.8322 797.805C35.5405 797.987 35.2046 798.078 34.8244 798.078C34.2515 798.078 33.7866 797.879 33.4298 797.48C33.0757 797.082 32.8986 796.555 32.8986 795.898V795.848ZM33.6252 795.934C33.6252 796.402 33.7332 796.779 33.9494 797.062C34.1681 797.346 34.4598 797.488 34.8244 797.488C35.1916 797.488 35.4832 797.345 35.6994 797.059C35.9155 796.77 36.0236 796.366 36.0236 795.848C36.0236 795.384 35.9129 795.009 35.6916 794.723C35.4728 794.434 35.1811 794.289 34.8166 794.289C34.4598 794.289 34.172 794.431 33.9533 794.715C33.7345 794.999 33.6252 795.405 33.6252 795.934ZM38.1722 793.773L38.1917 794.242C38.5016 793.878 38.9196 793.695 39.4456 793.695C40.0368 793.695 40.4391 793.922 40.6527 794.375C40.7933 794.172 40.9756 794.008 41.1995 793.883C41.4261 793.758 41.693 793.695 42.0003 793.695C42.9274 793.695 43.3988 794.186 43.4144 795.168V798H42.6917V795.211C42.6917 794.909 42.6227 794.684 42.4847 794.535C42.3467 794.384 42.1149 794.309 41.7894 794.309C41.5211 794.309 41.2985 794.389 41.1214 794.551C40.9443 794.71 40.8415 794.924 40.8128 795.195V798H40.0863V795.23C40.0863 794.616 39.7855 794.309 39.1839 794.309C38.7099 794.309 38.3857 794.51 38.2113 794.914V798H37.4886V793.773H38.1722ZM46.102 798.078C45.5291 798.078 45.063 797.891 44.7036 797.516C44.3442 797.138 44.1645 796.634 44.1645 796.004V795.871C44.1645 795.452 44.244 795.078 44.4028 794.75C44.5643 794.419 44.7882 794.161 45.0747 793.977C45.3638 793.789 45.6763 793.695 46.0122 793.695C46.5617 793.695 46.9888 793.876 47.2934 794.238C47.5981 794.6 47.7505 795.118 47.7505 795.793V796.094H44.8872C44.8976 796.51 45.0187 796.848 45.2505 797.105C45.4848 797.361 45.7817 797.488 46.1411 797.488C46.3963 797.488 46.6124 797.436 46.7895 797.332C46.9666 797.228 47.1216 797.09 47.2544 796.918L47.6958 797.262C47.3416 797.806 46.8104 798.078 46.102 798.078ZM46.0122 794.289C45.7205 794.289 45.4757 794.396 45.2778 794.609C45.0799 794.82 44.9575 795.117 44.9106 795.5H47.0278V795.445C47.007 795.078 46.908 794.794 46.7309 794.594C46.5539 794.391 46.3143 794.289 46.0122 794.289Z" fill="black"/>
<path d="M219.82 795.699H218.484V798H217.73V792.312H219.613C220.253 792.312 220.746 792.458 221.089 792.75C221.436 793.042 221.609 793.466 221.609 794.023C221.609 794.378 221.513 794.686 221.32 794.949C221.13 795.212 220.864 795.409 220.523 795.539L221.859 797.953V798H221.054L219.82 795.699ZM218.484 795.086H219.636C220.009 795.086 220.304 794.99 220.523 794.797C220.744 794.604 220.855 794.346 220.855 794.023C220.855 793.672 220.75 793.402 220.539 793.215C220.33 793.027 220.028 792.932 219.632 792.93H218.484V795.086ZM224.144 798.078C223.571 798.078 223.105 797.891 222.746 797.516C222.386 797.138 222.207 796.634 222.207 796.004V795.871C222.207 795.452 222.286 795.078 222.445 794.75C222.606 794.419 222.83 794.161 223.117 793.977C223.406 793.789 223.718 793.695 224.054 793.695C224.604 793.695 225.031 793.876 225.336 794.238C225.64 794.6 225.793 795.118 225.793 795.793V796.094H222.929C222.94 796.51 223.061 796.848 223.293 797.105C223.527 797.361 223.824 797.488 224.183 797.488C224.438 797.488 224.655 797.436 224.832 797.332C225.009 797.228 225.164 797.09 225.297 796.918L225.738 797.262C225.384 797.806 224.853 798.078 224.144 798.078ZM224.054 794.289C223.763 794.289 223.518 794.396 223.32 794.609C223.122 794.82 223 795.117 222.953 795.5H225.07V795.445C225.049 795.078 224.95 794.794 224.773 794.594C224.596 794.391 224.356 794.289 224.054 794.289ZM230.215 797.004L231.027 793.773H231.75L230.519 798H229.933L228.906 794.797L227.906 798H227.32L226.094 793.773H226.812L227.644 796.938L228.629 793.773H229.211L230.215 797.004ZM234.938 798C234.896 797.917 234.862 797.768 234.836 797.555C234.5 797.904 234.099 798.078 233.633 798.078C233.216 798.078 232.874 797.961 232.605 797.727C232.34 797.49 232.207 797.19 232.207 796.828C232.207 796.388 232.374 796.047 232.707 795.805C233.043 795.56 233.514 795.438 234.121 795.438H234.824V795.105C234.824 794.853 234.749 794.652 234.598 794.504C234.447 794.353 234.224 794.277 233.93 794.277C233.672 794.277 233.456 794.342 233.281 794.473C233.107 794.603 233.02 794.76 233.02 794.945H232.293C232.293 794.734 232.367 794.531 232.516 794.336C232.667 794.138 232.87 793.982 233.125 793.867C233.383 793.753 233.665 793.695 233.973 793.695C234.46 793.695 234.841 793.818 235.117 794.062C235.393 794.305 235.536 794.639 235.547 795.066V797.012C235.547 797.4 235.596 797.708 235.695 797.938V798H234.938ZM233.738 797.449C233.965 797.449 234.18 797.391 234.383 797.273C234.586 797.156 234.733 797.004 234.824 796.816V795.949H234.258C233.372 795.949 232.93 796.208 232.93 796.727C232.93 796.953 233.005 797.13 233.156 797.258C233.307 797.385 233.501 797.449 233.738 797.449ZM238.563 794.422C238.453 794.404 238.335 794.395 238.207 794.395C237.733 794.395 237.412 794.596 237.242 795V798H236.52V793.773H237.223L237.235 794.262C237.472 793.884 237.807 793.695 238.242 793.695C238.383 793.695 238.49 793.714 238.563 793.75V794.422ZM238.817 795.852C238.817 795.203 238.97 794.682 239.278 794.289C239.585 793.893 239.987 793.695 240.485 793.695C240.979 793.695 241.371 793.865 241.66 794.203V792H242.383V798H241.719L241.684 797.547C241.395 797.901 240.993 798.078 240.477 798.078C239.987 798.078 239.588 797.878 239.278 797.477C238.97 797.076 238.817 796.552 238.817 795.906V795.852ZM239.539 795.934C239.539 796.413 239.638 796.788 239.836 797.059C240.034 797.329 240.308 797.465 240.657 797.465C241.115 797.465 241.45 797.259 241.66 796.848V794.906C241.444 794.508 241.112 794.309 240.664 794.309C240.31 794.309 240.034 794.445 239.836 794.719C239.638 794.992 239.539 795.397 239.539 795.934ZM245.809 796.879C245.809 796.684 245.735 796.533 245.586 796.426C245.441 796.316 245.184 796.223 244.817 796.145C244.452 796.066 244.162 795.973 243.946 795.863C243.732 795.754 243.573 795.624 243.469 795.473C243.368 795.322 243.317 795.142 243.317 794.934C243.317 794.587 243.463 794.294 243.754 794.055C244.049 793.815 244.424 793.695 244.879 793.695C245.359 793.695 245.747 793.819 246.043 794.066C246.343 794.314 246.493 794.63 246.493 795.016H245.766C245.766 794.818 245.681 794.647 245.512 794.504C245.346 794.361 245.135 794.289 244.879 794.289C244.616 794.289 244.411 794.346 244.262 794.461C244.114 794.576 244.04 794.725 244.04 794.91C244.04 795.085 244.109 795.216 244.247 795.305C244.385 795.393 244.633 795.478 244.993 795.559C245.355 795.639 245.648 795.736 245.872 795.848C246.096 795.96 246.261 796.095 246.368 796.254C246.477 796.41 246.532 796.602 246.532 796.828C246.532 797.206 246.381 797.509 246.079 797.738C245.777 797.965 245.385 798.078 244.903 798.078C244.564 798.078 244.265 798.018 244.004 797.898C243.744 797.779 243.54 797.612 243.391 797.398C243.245 797.182 243.172 796.949 243.172 796.699H243.895C243.908 796.941 244.004 797.134 244.184 797.277C244.366 797.418 244.606 797.488 244.903 797.488C245.176 797.488 245.395 797.434 245.559 797.324C245.726 797.212 245.809 797.064 245.809 796.879Z" fill="black"/>
<path d="M240.457 768.172H238.211V767.195C238.211 767.088 238.123 767 238.016 767H225.516C225.408 767 225.32 767.088 225.32 767.195V768.172H223.074C222.789 768.172 222.516 768.285 222.315 768.487C222.113 768.688 222 768.961 222 769.246V772.859C222 774.854 223.465 776.512 225.374 776.814C225.752 779.651 228.03 781.885 230.887 782.198V784.766H226.102C225.669 784.766 225.32 785.115 225.32 785.547V786.336C225.32 786.443 225.408 786.531 225.516 786.531H238.016C238.123 786.531 238.211 786.443 238.211 786.336V785.547C238.211 785.115 237.862 784.766 237.43 784.766H232.645V782.198C235.501 781.885 237.779 779.651 238.157 776.814C240.066 776.512 241.531 774.854 241.531 772.859V769.246C241.531 768.961 241.418 768.688 241.217 768.487C241.015 768.285 240.742 768.172 240.457 768.172ZM223.758 772.859V769.93H225.32V774.998C224.867 774.853 224.471 774.568 224.19 774.184C223.909 773.799 223.758 773.335 223.758 772.859ZM236.453 775.984C236.453 777.183 235.987 778.313 235.137 779.161C234.288 780.01 233.16 780.477 231.961 780.477H231.57C230.372 780.477 229.241 780.01 228.394 779.161C227.544 778.311 227.078 777.183 227.078 775.984V768.758H236.453V775.984ZM239.773 772.859C239.773 773.86 239.117 774.71 238.211 774.998V769.93H239.773V772.859Z" fill="black"/>
<path d="M329.5 777.875C330.942 777.875 332.325 777.302 333.345 776.282C334.365 775.263 334.938 773.88 334.938 772.438C334.938 770.995 334.365 769.612 333.345 768.593C332.325 767.573 330.942 767 329.5 767C328.058 767 326.675 767.573 325.655 768.593C324.635 769.612 324.062 770.995 324.062 772.438C324.062 773.88 324.635 775.263 325.655 776.282C326.675 777.302 328.058 777.875 329.5 777.875ZM333.125 772.438C333.125 773.399 332.743 774.321 332.063 775.001C331.383 775.681 330.461 776.062 329.5 776.062C328.539 776.062 327.617 775.681 326.937 775.001C326.257 774.321 325.875 773.399 325.875 772.438C325.875 771.476 326.257 770.554 326.937 769.874C327.617 769.194 328.539 768.812 329.5 768.812C330.461 768.812 331.383 769.194 332.063 769.874C332.743 770.554 333.125 771.476 333.125 772.438ZM340.375 786.938C340.375 788.75 338.562 788.75 338.562 788.75H320.438C320.438 788.75 318.625 788.75 318.625 786.938C318.625 785.125 320.438 779.688 329.5 779.688C338.562 779.688 340.375 785.125 340.375 786.938ZM338.562 786.93C338.561 786.484 338.283 785.143 337.055 783.914C335.873 782.732 333.649 781.5 329.5 781.5C325.349 781.5 323.127 782.732 321.946 783.914C320.717 785.143 320.441 786.484 320.438 786.93H338.562Z" fill="black"/>
</g>
</g>
<defs>
<filter id="filter0_d" x="-4" y="745" width="383" height="68" filterUnits="userSpaceOnUse" color-interpolation-filters="sRGB">
<feFlood flood-opacity="0" result="BackgroundImageFix"/>
<feColorMatrix in="SourceAlpha" type="matrix" values="0 0 0 0 0 0 0 0 0 0 0 0 0 0 0 0 0 0 127 0" result="hardAlpha"/>
<feMorphology radius="3" operator="erode" in="SourceAlpha" result="effect1_dropShadow"/>
<feOffset dy="-3"/>
<feGaussianBlur stdDeviation="3.5"/>
<feComposite in2="hardAlpha" operator="out"/>
<feColorMatrix type="matrix" values="0 0 0 0 0.470588 0 0 0 0 0.47451 0 0 0 0 0.945098 0 0 0 0.22 0"/>
<feBlend mode="normal" in2="BackgroundImageFix" result="effect1_dropShadow"/>
<feBlend mode="normal" in="SourceGraphic" in2="effect1_dropShadow" result="shape"/>
</filter>
<clipPath id="clip0">
<rect width="375" height="812" fill="white"/>
</clipPath>
<clipPath id="clip1">
<rect width="375" height="44" fill="white"/>
</clipPath>
</defs>
</svg>
