<svg width="21" height="36" viewBox="0 0 21 36" fill="none" xmlns="http://www.w3.org/2000/svg">
<path d="M4.85938 32.3447C4.66667 32.6208 4.39714 32.8278 4.05078 32.9658C3.70703 33.1012 3.30599 33.1689 2.84766 33.1689C2.38411 33.1689 1.97266 33.0609 1.61328 32.8447C1.25391 32.626 0.97526 32.3161 0.777344 31.915C0.582031 31.514 0.481771 31.0492 0.476562 30.5205V30.0244C0.476562 29.1676 0.675781 28.5036 1.07422 28.0322C1.47526 27.5609 2.03776 27.3252 2.76172 27.3252C3.35547 27.3252 3.83333 27.4775 4.19531 27.7822C4.55729 28.0843 4.77865 28.514 4.85938 29.0713H4.10938C3.96875 28.3187 3.52083 27.9424 2.76562 27.9424C2.26302 27.9424 1.88151 28.1195 1.62109 28.4736C1.36328 28.8252 1.23307 29.3356 1.23047 30.0049V30.4697C1.23047 31.1077 1.3763 31.6156 1.66797 31.9932C1.95964 32.3682 2.35417 32.5557 2.85156 32.5557C3.13281 32.5557 3.37891 32.5244 3.58984 32.4619C3.80078 32.3994 3.97526 32.2939 4.11328 32.1455V30.8682H2.79688V30.2588H4.85938V32.3447ZM5.64859 30.9385C5.64859 30.5244 5.72932 30.152 5.89078 29.8213C6.05484 29.4906 6.28141 29.2354 6.57047 29.0557C6.86214 28.876 7.19417 28.7861 7.56656 28.7861C8.14208 28.7861 8.60693 28.9854 8.96109 29.3838C9.31786 29.7822 9.49625 30.3122 9.49625 30.9736V31.0244C9.49625 31.4359 9.41682 31.8057 9.25797 32.1338C9.10172 32.4593 8.87646 32.7132 8.58219 32.8955C8.29052 33.0778 7.95458 33.1689 7.57438 33.1689C7.00146 33.1689 6.53661 32.9697 6.17984 32.5713C5.82568 32.1729 5.64859 31.6455 5.64859 30.9893V30.9385ZM6.37516 31.0244C6.37516 31.4932 6.48323 31.8695 6.69938 32.1533C6.91813 32.4372 7.20979 32.5791 7.57438 32.5791C7.94156 32.5791 8.23323 32.4359 8.44938 32.1494C8.66552 31.8604 8.77359 31.4567 8.77359 30.9385C8.77359 30.4749 8.66292 30.0999 8.44156 29.8135C8.22281 29.5244 7.93115 29.3799 7.56656 29.3799C7.20979 29.3799 6.92203 29.5218 6.70328 29.8057C6.48453 30.0895 6.37516 30.4958 6.37516 31.0244ZM12.8519 33.0908C12.8102 33.0075 12.7764 32.859 12.7503 32.6455C12.4144 32.9945 12.0133 33.1689 11.5472 33.1689C11.1305 33.1689 10.7881 33.0518 10.5198 32.8174C10.2542 32.5804 10.1214 32.2809 10.1214 31.9189C10.1214 31.4788 10.2881 31.1377 10.6214 30.8955C10.9573 30.6507 11.4287 30.5283 12.0355 30.5283H12.7386V30.1963C12.7386 29.9437 12.6631 29.7432 12.512 29.5947C12.361 29.4437 12.1383 29.3682 11.8441 29.3682C11.5863 29.3682 11.3701 29.4333 11.1956 29.5635C11.0211 29.6937 10.9339 29.8512 10.9339 30.0361H10.2073C10.2073 29.8252 10.2816 29.6221 10.43 29.4268C10.581 29.2288 10.7842 29.0726 11.0394 28.958C11.2972 28.8434 11.5797 28.7861 11.887 28.7861C12.374 28.7861 12.7555 28.9085 13.0316 29.1533C13.3076 29.3955 13.4508 29.7301 13.4613 30.1572V32.1025C13.4613 32.4906 13.5107 32.7992 13.6097 33.0283V33.0908H12.8519ZM11.6527 32.54C11.8792 32.54 12.0941 32.4814 12.2972 32.3643C12.5003 32.2471 12.6474 32.0947 12.7386 31.9072V31.04H12.1722C11.2868 31.04 10.8441 31.2992 10.8441 31.8174C10.8441 32.0439 10.9196 32.221 11.0706 32.3486C11.2217 32.4762 11.4157 32.54 11.6527 32.54ZM15.2192 33.0908H14.4966V27.0908H15.2192V33.0908ZM18.6803 31.9697C18.6803 31.7744 18.6061 31.6234 18.4577 31.5166C18.3118 31.4072 18.0553 31.3135 17.6881 31.2354C17.3235 31.1572 17.0332 31.0635 16.817 30.9541C16.6035 30.8447 16.4446 30.7145 16.3405 30.5635C16.2389 30.4124 16.1881 30.2327 16.1881 30.0244C16.1881 29.6781 16.334 29.3851 16.6256 29.1455C16.9199 28.9059 17.2949 28.7861 17.7506 28.7861C18.2298 28.7861 18.6178 28.9098 18.9147 29.1572C19.2142 29.4046 19.3639 29.721 19.3639 30.1064H18.6373C18.6373 29.9085 18.5527 29.738 18.3834 29.5947C18.2168 29.4515 18.0058 29.3799 17.7506 29.3799C17.4876 29.3799 17.2819 29.4372 17.1334 29.5518C16.985 29.6663 16.9108 29.8161 16.9108 30.001C16.9108 30.1755 16.9798 30.307 17.1178 30.3955C17.2558 30.484 17.5045 30.5687 17.8639 30.6494C18.2259 30.7301 18.5189 30.8265 18.7428 30.9385C18.9668 31.0505 19.1321 31.1859 19.2389 31.3447C19.3483 31.501 19.403 31.6924 19.403 31.9189C19.403 32.2965 19.2519 32.5999 18.9498 32.8291C18.6478 33.0557 18.2558 33.1689 17.7741 33.1689C17.4355 33.1689 17.136 33.109 16.8756 32.9893C16.6152 32.8695 16.4108 32.7028 16.2623 32.4893C16.1165 32.2731 16.0436 32.04 16.0436 31.79H16.7662C16.7793 32.0322 16.8756 32.2249 17.0553 32.3682C17.2376 32.5088 17.4772 32.5791 17.7741 32.5791C18.0475 32.5791 18.2662 32.5244 18.4303 32.415C18.597 32.3031 18.6803 32.1546 18.6803 31.9697Z" fill="black"/>
<path d="M19.3799 1.27841H17.0215V0.213068C17.0215 0.0958807 16.9292 0 16.8164 0H3.69141C3.57861 0 3.48633 0.0958807 3.48633 0.213068V1.27841H1.12793C0.828784 1.27841 0.541891 1.40187 0.330363 1.62164C0.118835 1.84141 0 2.13948 0 2.45028V6.39205C0 8.568 1.53809 10.3764 3.54272 10.7067C3.94006 13.8015 6.33179 16.2385 9.33105 16.5794V19.3812H4.30664C3.85291 19.3812 3.48633 19.7621 3.48633 20.2335V21.0938C3.48633 21.2109 3.57861 21.3068 3.69141 21.3068H16.8164C16.9292 21.3068 17.0215 21.2109 17.0215 21.0938V20.2335C17.0215 19.7621 16.6549 19.3812 16.2012 19.3812H11.1768V16.5794C14.176 16.2385 16.5677 13.8015 16.9651 10.7067C18.9697 10.3764 20.5078 8.568 20.5078 6.39205V2.45028C20.5078 2.13948 20.389 1.84141 20.1774 1.62164C19.9659 1.40187 19.679 1.27841 19.3799 1.27841ZM1.8457 6.39205V3.19602H3.48633V8.72514C3.01015 8.56712 2.59463 8.25597 2.29974 7.83662C2.00485 7.41726 1.84586 6.9114 1.8457 6.39205V6.39205ZM15.1758 9.80114C15.1758 11.1088 14.6862 12.342 13.7941 13.2662C12.902 14.193 11.7177 14.7017 10.459 14.7017H10.0488C8.79016 14.7017 7.60327 14.193 6.71374 13.2662C5.82166 12.3393 5.33203 11.1088 5.33203 9.80114V1.91761H15.1758V9.80114ZM18.6621 6.39205C18.6621 7.48402 17.9725 8.41087 17.0215 8.72514V3.19602H18.6621V6.39205Z" fill="black"/>
</svg>
