<svg width="29" height="29" viewBox="0 0 29 29" fill="none" xmlns="http://www.w3.org/2000/svg">
<path d="M26.3484 12.1336H25.3751V12.0834H14.5001V16.9167H21.329C20.3327 19.7304 17.6556 21.7501 14.5001 21.7501C10.4963 21.7501 7.25008 18.5039 7.25008 14.5001C7.25008 10.4963 10.4963 7.25008 14.5001 7.25008C16.3482 7.25008 18.0296 7.94729 19.3099 9.08614L22.7276 5.66837C20.5695 3.6571 17.6828 2.41675 14.5001 2.41675C7.82706 2.41675 2.41675 7.82706 2.41675 14.5001C2.41675 21.1731 7.82706 26.5834 14.5001 26.5834C21.1731 26.5834 26.5834 21.1731 26.5834 14.5001C26.5834 13.6899 26.5 12.899 26.3484 12.1336Z" fill="#FFC107"/>
<path d="M3.80981 8.87589L7.77979 11.7874C8.854 9.12783 11.4555 7.25008 14.4999 7.25008C16.3481 7.25008 18.0295 7.94729 19.3097 9.08614L22.7275 5.66837C20.5694 3.6571 17.6827 2.41675 14.4999 2.41675C9.85873 2.41675 5.83377 5.03702 3.80981 8.87589Z" fill="#FF3D00"/>
<path d="M14.5001 26.5833C17.6212 26.5833 20.4572 25.3888 22.6014 23.4464L18.8616 20.2818C17.6077 21.2354 16.0754 21.7512 14.5001 21.7499C11.3572 21.7499 8.68863 19.7459 7.6833 16.9492L3.74292 19.9852C5.74271 23.8983 9.80392 26.5833 14.5001 26.5833Z" fill="#4CAF50"/>
<path d="M26.3483 12.1334H25.375V12.0833H14.5V16.9166H21.3289C20.8523 18.2557 19.9939 19.4258 18.8597 20.2824L18.8615 20.2812L22.6013 23.4458C22.3366 23.6863 26.5833 20.5416 26.5833 14.4999C26.5833 13.6897 26.5 12.8989 26.3483 12.1334Z" fill="#1976D2"/>
</svg>
