<svg width="27" height="36" viewBox="0 0 27 36" fill="none" xmlns="http://www.w3.org/2000/svg">
<path d="M0 10.9983C0 11.5641 0.441537 12.0537 1.148 12.0537C1.49019 12.0537 1.79926 11.8688 2.07523 11.6511L3.33361 10.6065V20.7261C3.33361 22.3366 4.31603 23.2941 6.00491 23.2941H20.9399C22.6177 23.2941 23.6112 22.3366 23.6112 20.7261V10.5521L24.9358 11.6511C25.2007 11.8688 25.5098 12.0537 25.852 12.0537C26.5033 12.0537 27 11.6511 27 11.02C27 10.6501 26.8565 10.3563 26.5695 10.1169L23.6112 7.65771V3.02228C23.6112 2.53262 23.2911 2.22794 22.7944 2.22794H21.2711C20.7854 2.22794 20.4542 2.53262 20.4542 3.02228V5.0462L15.0785 0.59575C14.1182 -0.198583 12.9039 -0.198583 11.9436 0.59575L0.441537 10.1169C0.1435 10.3563 0 10.6827 0 10.9983ZM16.6791 14.0015C16.6791 13.4901 16.3479 13.1636 15.8291 13.1636H11.193C10.6742 13.1636 10.332 13.4901 10.332 14.0015V21.1287H6.58994C5.90556 21.1287 5.53025 20.7479 5.53025 20.0624V8.78936L13.0253 2.58703C13.3344 2.32588 13.6877 2.32588 13.9967 2.58703L21.4035 8.72407V20.0624C21.4035 20.7479 21.0282 21.1287 20.3438 21.1287H16.6791V14.0015Z" fill="#1C1C1E"/>
<path d="M7.19122 33.4119H6.43732V30.783H3.57013V33.4119H2.82013V27.7244H3.57013V30.1697H6.43732V27.7244H7.19122V33.4119ZM8.05857 31.2595C8.05857 30.8455 8.1393 30.4731 8.30075 30.1423C8.46482 29.8116 8.69138 29.5564 8.98044 29.3767C9.27211 29.197 9.60414 29.1072 9.97654 29.1072C10.5521 29.1072 11.0169 29.3064 11.3711 29.7048C11.7278 30.1033 11.9062 30.6332 11.9062 31.2947V31.3455C11.9062 31.7569 11.8268 32.1267 11.6679 32.4548C11.5117 32.7804 11.2864 33.0343 10.9922 33.2166C10.7005 33.3988 10.3646 33.49 9.98435 33.49C9.41143 33.49 8.94659 33.2908 8.58982 32.8923C8.23565 32.4939 8.05857 31.9666 8.05857 31.3103V31.2595ZM8.78513 31.3455C8.78513 31.8142 8.8932 32.1905 9.10935 32.4744C9.3281 32.7582 9.61976 32.9001 9.98435 32.9001C10.3515 32.9001 10.6432 32.7569 10.8593 32.4705C11.0755 32.1814 11.1836 31.7778 11.1836 31.2595C11.1836 30.796 11.0729 30.421 10.8515 30.1345C10.6328 29.8455 10.3411 29.7009 9.97654 29.7009C9.61976 29.7009 9.332 29.8429 9.11325 30.1267C8.8945 30.4106 8.78513 30.8168 8.78513 31.3455ZM13.3322 29.1853L13.3517 29.6541C13.6616 29.2895 14.0796 29.1072 14.6056 29.1072C15.1967 29.1072 15.5991 29.3337 15.8126 29.7869C15.9533 29.5837 16.1355 29.4197 16.3595 29.2947C16.5861 29.1697 16.853 29.1072 17.1603 29.1072C18.0874 29.1072 18.5587 29.5981 18.5743 30.5798V33.4119H17.8517V30.6228C17.8517 30.3207 17.7827 30.0955 17.6447 29.947C17.5066 29.796 17.2749 29.7205 16.9493 29.7205C16.6811 29.7205 16.4585 29.8012 16.2814 29.9626C16.1043 30.1215 16.0014 30.3363 15.9728 30.6072V33.4119H15.2462V30.6423C15.2462 30.0278 14.9454 29.7205 14.3439 29.7205C13.8699 29.7205 13.5457 29.9223 13.3712 30.3259V33.4119H12.6486V29.1853H13.3322ZM21.262 33.49C20.6891 33.49 20.2229 33.3025 19.8636 32.9275C19.5042 32.5499 19.3245 32.046 19.3245 31.4158V31.283C19.3245 30.8637 19.4039 30.49 19.5628 30.1619C19.7242 29.8311 19.9482 29.5733 20.2347 29.3884C20.5237 29.2009 20.8362 29.1072 21.1722 29.1072C21.7216 29.1072 22.1487 29.2882 22.4534 29.6501C22.7581 30.0121 22.9104 30.5304 22.9104 31.2048V31.5056H20.0472C20.0576 31.9223 20.1787 32.2595 20.4104 32.5173C20.6448 32.7725 20.9417 32.9001 21.3011 32.9001C21.5563 32.9001 21.7724 32.8481 21.9495 32.7439C22.1266 32.6397 22.2815 32.5017 22.4143 32.3298L22.8558 32.6736C22.5016 33.2179 21.9703 33.49 21.262 33.49ZM21.1722 29.7009C20.8805 29.7009 20.6357 29.8077 20.4378 30.0212C20.2399 30.2322 20.1175 30.5291 20.0706 30.9119H22.1878V30.8572C22.167 30.49 22.068 30.2061 21.8909 30.0056C21.7138 29.8025 21.4742 29.7009 21.1722 29.7009Z" fill="black"/>
</svg>
