<svg width="375" height="812" viewBox="0 0 375 812" fill="none" xmlns="http://www.w3.org/2000/svg">
<g clip-path="url(#clip0)">
<rect width="375" height="812" fill="#F6F6FE"/>
<rect x="-13" y="-12" width="392" height="317" rx="12" fill="#A5A6F6" fill-opacity="0.43"/>
<g clip-path="url(#clip1)">
<path d="M78 -2H297C294.894 -1.39731 293.418 0.495246 293.345 2.68446L293.317 3.5618C293.317 17.0587 282.375 28 268.878 28H106.122C92.6249 28 81.6835 17.0587 81.6835 3.5618L81.6545 2.68447C81.5823 0.49525 80.1059 -1.39731 78 -2Z" fill="black"/>
<path opacity="0.35" d="M336.5 20C336.5 18.8034 337.47 17.8334 338.667 17.8334H355.333C356.53 17.8334 357.5 18.8034 357.5 20V26C357.5 27.1967 356.53 28.1667 355.333 28.1667H338.667C337.47 28.1667 336.5 27.1967 336.5 26V20Z" stroke="black"/>
<path opacity="0.4" d="M359 21V25C359.805 24.6613 360.328 23.8732 360.328 23C360.328 22.1269 359.805 21.3388 359 21Z" fill="black"/>
<path d="M338 20.6667C338 19.9303 338.597 19.3334 339.333 19.3334H354.667C355.403 19.3334 356 19.9303 356 20.6667V25.3334C356 26.0698 355.403 26.6667 354.667 26.6667H339.333C338.597 26.6667 338 26.0698 338 25.3334V20.6667Z" fill="black"/>
<path fill-rule="evenodd" clip-rule="evenodd" d="M323.33 19.608C325.546 19.6081 327.678 20.4596 329.283 21.9863C329.404 22.1042 329.598 22.1027 329.717 21.983L330.873 20.8163C330.933 20.7556 330.967 20.6734 330.966 20.5878C330.966 20.5022 330.931 20.4204 330.87 20.3603C326.655 16.3208 320.005 16.3208 315.79 20.3603C315.729 20.4203 315.694 20.5021 315.694 20.5877C315.693 20.6733 315.727 20.7556 315.787 20.8163L316.943 21.983C317.062 22.1029 317.256 22.1044 317.377 21.9863C318.983 20.4595 321.114 19.608 323.33 19.608ZM323.33 23.4037C324.548 23.4036 325.722 23.8561 326.624 24.6733C326.747 24.7893 326.939 24.7868 327.058 24.6677L328.212 23.501C328.273 23.4398 328.307 23.3568 328.306 23.2705C328.305 23.1843 328.27 23.102 328.208 23.042C325.46 20.4856 321.204 20.4856 318.455 23.042C318.393 23.102 318.358 23.1843 318.357 23.2706C318.356 23.3569 318.39 23.4399 318.451 23.501L319.605 24.6677C319.724 24.7868 319.917 24.7893 320.039 24.6733C320.941 23.8567 322.114 23.4042 323.33 23.4037ZM325.643 25.9575C325.645 26.044 325.611 26.1274 325.549 26.188L323.552 28.2037C323.494 28.2629 323.414 28.2963 323.33 28.2963C323.247 28.2963 323.167 28.2629 323.109 28.2037L321.111 26.188C321.049 26.1274 321.015 26.0439 321.017 25.9574C321.019 25.8709 321.057 25.789 321.121 25.731C322.396 24.6521 324.265 24.6521 325.54 25.731C325.604 25.7891 325.642 25.871 325.643 25.9575Z" fill="black"/>
<path fill-rule="evenodd" clip-rule="evenodd" d="M309.667 17.6666H308.667C308.114 17.6666 307.667 18.1143 307.667 18.6666V27.3333C307.667 27.8856 308.114 28.3333 308.667 28.3333H309.667C310.219 28.3333 310.667 27.8856 310.667 27.3333V18.6666C310.667 18.1143 310.219 17.6666 309.667 17.6666ZM304 20H305C305.552 20 306 20.4477 306 21V27.3333C306 27.8856 305.552 28.3333 305 28.3333H304C303.448 28.3333 303 27.8856 303 27.3333V21C303 20.4477 303.448 20 304 20ZM300.333 22.3333H299.333C298.781 22.3333 298.333 22.781 298.333 23.3333V27.3333C298.333 27.8856 298.781 28.3333 299.333 28.3333H300.333C300.886 28.3333 301.333 27.8856 301.333 27.3333V23.3333C301.333 22.781 300.886 22.3333 300.333 22.3333ZM295.667 24.3333H294.667C294.114 24.3333 293.667 24.781 293.667 25.3333V27.3333C293.667 27.8856 294.114 28.3333 294.667 28.3333H295.667C296.219 28.3333 296.667 27.8856 296.667 27.3333V25.3333C296.667 24.781 296.219 24.3333 295.667 24.3333Z" fill="black"/>
<path d="M37.3208 28.2563C40.0088 28.2563 41.6055 26.1543 41.6055 22.5947C41.6055 21.2544 41.3491 20.1265 40.8584 19.2549C40.1479 17.8999 38.9248 17.1675 37.3794 17.1675C35.0796 17.1675 33.4536 18.7129 33.4536 20.8809C33.4536 22.917 34.9185 24.3965 36.9326 24.3965C38.1704 24.3965 39.1738 23.8179 39.6719 22.8145H39.6938C39.6938 22.8145 39.7231 22.8145 39.7305 22.8145C39.7451 22.8145 39.7964 22.8145 39.7964 22.8145C39.7964 25.2314 38.8809 26.6743 37.3354 26.6743C36.4272 26.6743 35.7241 26.1763 35.4824 25.3779H33.6001C33.915 27.1138 35.3872 28.2563 37.3208 28.2563ZM37.3867 22.895C36.1709 22.895 35.3066 22.0308 35.3066 20.8223C35.3066 19.6431 36.2148 18.7422 37.394 18.7422C38.5732 18.7422 39.4814 19.6577 39.4814 20.8516C39.4814 22.0308 38.5952 22.895 37.3867 22.895Z" fill="black"/>
<path d="M44.6966 28.1538C45.3924 28.1538 45.8685 27.6558 45.8685 26.9966C45.8685 26.3301 45.3924 25.8394 44.6966 25.8394C44.0081 25.8394 43.5247 26.3301 43.5247 26.9966C43.5247 27.6558 44.0081 28.1538 44.6966 28.1538ZM44.6966 22.6606C45.3924 22.6606 45.8685 22.1699 45.8685 21.5107C45.8685 20.8442 45.3924 20.3535 44.6966 20.3535C44.0081 20.3535 43.5247 20.8442 43.5247 21.5107C43.5247 22.1699 44.0081 22.6606 44.6966 22.6606Z" fill="black"/>
<path d="M52.7242 28H54.5333V26.0298H55.9615V24.4331H54.5333V17.4312H51.8673C49.9996 20.2437 48.5128 22.5947 47.5606 24.3452V26.0298H52.7242V28ZM49.3111 24.3672C50.5416 22.1992 51.6402 20.4634 52.651 18.9692H52.7535V24.4771H49.3111V24.3672Z" fill="black"/>
<path d="M59.9901 28H61.8798V17.4312H59.9975L57.2362 19.3647V21.1812L59.8656 19.3354H59.9901V28Z" fill="black"/>
</g>
<rect x="-24" y="305" width="420" height="462" rx="12" fill="white"/>
<path d="M59.8588 186.88V195.232H67.9228V186.88H73.4268V208H67.9228V199.488H59.8588V208H54.3548V186.88H59.8588ZM84.603 191.68C86.2883 191.68 87.7603 192.011 89.019 192.672C90.299 193.333 91.291 194.283 91.995 195.52C92.7203 196.757 93.083 198.251 93.083 200C93.083 201.749 92.7203 203.243 91.995 204.48C91.291 205.717 90.299 206.667 89.019 207.328C87.7603 207.989 86.2883 208.32 84.603 208.32C82.939 208.32 81.467 207.989 80.187 207.328C78.9283 206.667 77.9363 205.717 77.211 204.48C76.507 203.243 76.155 201.749 76.155 200C76.155 198.251 76.507 196.757 77.211 195.52C77.9363 194.283 78.9283 193.333 80.187 192.672C81.467 192.011 82.939 191.68 84.603 191.68ZM84.603 195.552C83.6643 195.552 82.9283 195.904 82.395 196.608C81.883 197.291 81.627 198.421 81.627 200C81.627 201.557 81.883 202.688 82.395 203.392C82.9283 204.096 83.6643 204.448 84.603 204.448C85.563 204.448 86.299 204.096 86.811 203.392C87.3443 202.688 87.611 201.557 87.611 200C87.611 198.421 87.3443 197.291 86.811 196.608C86.299 195.904 85.563 195.552 84.603 195.552ZM116.057 192H121.753L116.921 208H110.393L107.481 198.176L104.665 208H98.169L93.305 192H99.033L101.721 203.808L104.857 192H110.233L113.337 203.808L116.057 192ZM131.098 208V192H135.962L136.122 195.104C136.634 193.973 137.349 193.12 138.266 192.544C139.205 191.968 140.282 191.68 141.498 191.68C142.672 191.68 143.696 191.947 144.57 192.48C145.466 193.013 146.128 193.803 146.554 194.848C147.045 193.803 147.77 193.013 148.73 192.48C149.712 191.947 150.778 191.68 151.93 191.68C153.509 191.68 154.81 192.16 155.834 193.12C156.88 194.059 157.402 195.467 157.402 197.344V208H151.962V198.592C151.962 197.568 151.76 196.853 151.354 196.448C150.949 196.043 150.426 195.84 149.786 195.84C148.976 195.84 148.304 196.149 147.77 196.768C147.237 197.365 146.97 198.261 146.97 199.456V208H141.53V198.592C141.53 197.568 141.328 196.853 140.922 196.448C140.517 196.043 139.994 195.84 139.354 195.84C138.608 195.84 137.946 196.128 137.37 196.704C136.816 197.28 136.538 198.229 136.538 199.552V208H131.098ZM165.991 208.32C164.37 208.32 163.047 207.883 162.023 207.008C160.999 206.133 160.487 204.693 160.487 202.688V192H165.927V201.408C165.927 202.432 166.13 203.147 166.535 203.552C166.941 203.957 167.517 204.16 168.263 204.16C169.031 204.16 169.682 203.883 170.215 203.328C170.77 202.752 171.047 201.835 171.047 200.576V192H176.487V208H171.623L171.463 204.992C170.951 206.123 170.237 206.965 169.319 207.52C168.402 208.053 167.293 208.32 165.991 208.32ZM187.34 191.68C188.961 191.68 190.305 191.915 191.372 192.384C192.46 192.853 193.302 193.461 193.9 194.208C194.497 194.955 194.881 195.765 195.052 196.64L190.028 198.304C189.9 197.387 189.633 196.704 189.228 196.256C188.822 195.787 188.246 195.552 187.5 195.552C186.476 195.552 185.697 195.915 185.164 196.64C184.652 197.365 184.396 198.507 184.396 200.064C184.396 201.643 184.673 202.773 185.228 203.456C185.804 204.117 186.572 204.448 187.532 204.448C189.046 204.448 189.932 203.584 190.188 201.856L195.084 203.424C194.849 204.811 194.07 205.973 192.748 206.912C191.446 207.851 189.718 208.32 187.564 208.32C184.94 208.32 182.838 207.595 181.26 206.144C179.702 204.672 178.924 202.624 178.924 200C178.924 198.251 179.276 196.757 179.98 195.52C180.705 194.283 181.697 193.333 182.956 192.672C184.214 192.011 185.676 191.68 187.34 191.68ZM197.272 208V185.216H202.712V194.912C203.181 193.845 203.853 193.045 204.728 192.512C205.603 191.957 206.616 191.68 207.768 191.68C209.411 191.68 210.744 192.16 211.768 193.12C212.792 194.08 213.304 195.488 213.304 197.344V208H207.864V198.848C207.864 197.696 207.651 196.907 207.224 196.48C206.819 196.032 206.275 195.808 205.592 195.808C204.824 195.808 204.152 196.107 203.576 196.704C203 197.28 202.712 198.24 202.712 199.584V208H197.272ZM230.88 208.32C228.896 208.32 227.296 207.595 226.08 206.144C224.885 204.693 224.288 202.667 224.288 200.064C224.288 198.272 224.565 196.757 225.12 195.52C225.696 194.261 226.485 193.312 227.488 192.672C228.512 192.011 229.685 191.68 231.008 191.68C232.139 191.68 233.099 191.957 233.888 192.512C234.699 193.067 235.307 193.803 235.712 194.72V185.216H241.152V208H236.288L236.096 204.864C235.648 205.931 234.965 206.773 234.048 207.392C233.152 208.011 232.096 208.32 230.88 208.32ZM232.768 204.32C233.664 204.32 234.379 203.947 234.912 203.2C235.445 202.453 235.712 201.355 235.712 199.904C235.712 198.56 235.456 197.525 234.944 196.8C234.432 196.053 233.717 195.68 232.8 195.68C231.861 195.68 231.115 196.032 230.56 196.736C230.027 197.419 229.76 198.507 229.76 200C229.76 201.493 230.027 202.592 230.56 203.296C231.093 203.979 231.829 204.32 232.768 204.32ZM252.031 191.68C253.716 191.68 255.188 192.011 256.447 192.672C257.727 193.333 258.719 194.283 259.423 195.52C260.148 196.757 260.511 198.251 260.511 200C260.511 201.749 260.148 203.243 259.423 204.48C258.719 205.717 257.727 206.667 256.447 207.328C255.188 207.989 253.716 208.32 252.031 208.32C250.367 208.32 248.895 207.989 247.615 207.328C246.356 206.667 245.364 205.717 244.639 204.48C243.935 203.243 243.583 201.749 243.583 200C243.583 198.251 243.935 196.757 244.639 195.52C245.364 194.283 246.356 193.333 247.615 192.672C248.895 192.011 250.367 191.68 252.031 191.68ZM252.031 195.552C251.092 195.552 250.356 195.904 249.823 196.608C249.311 197.291 249.055 198.421 249.055 200C249.055 201.557 249.311 202.688 249.823 203.392C250.356 204.096 251.092 204.448 252.031 204.448C252.991 204.448 253.727 204.096 254.239 203.392C254.772 202.688 255.039 201.557 255.039 200C255.039 198.421 254.772 197.291 254.239 196.608C253.727 195.904 252.991 195.552 252.031 195.552ZM287.231 192L281.407 208C280.809 209.685 280.159 211.029 279.455 212.032C278.751 213.056 277.919 213.781 276.959 214.208C275.999 214.656 274.847 214.88 273.503 214.88C272.585 214.88 271.753 214.784 271.007 214.592C270.281 214.4 269.641 214.133 269.087 213.792L270.175 210.112C270.559 210.389 270.964 210.581 271.391 210.688C271.817 210.816 272.361 210.88 273.023 210.88C273.641 210.88 274.143 210.773 274.527 210.56C274.932 210.368 275.252 209.963 275.487 209.344L275.903 208.352L274.047 204L269.247 192H275.231L277.695 201.12L278.463 204.512L279.359 200.992L281.823 192H287.231ZM295.86 191.68C297.546 191.68 299.018 192.011 300.276 192.672C301.556 193.333 302.548 194.283 303.252 195.52C303.978 196.757 304.34 198.251 304.34 200C304.34 201.749 303.978 203.243 303.252 204.48C302.548 205.717 301.556 206.667 300.276 207.328C299.018 207.989 297.546 208.32 295.86 208.32C294.196 208.32 292.724 207.989 291.444 207.328C290.186 206.667 289.194 205.717 288.468 204.48C287.764 203.243 287.412 201.749 287.412 200C287.412 198.251 287.764 196.757 288.468 195.52C289.194 194.283 290.186 193.333 291.444 192.672C292.724 192.011 294.196 191.68 295.86 191.68ZM295.86 195.552C294.922 195.552 294.186 195.904 293.652 196.608C293.14 197.291 292.884 198.421 292.884 200C292.884 201.557 293.14 202.688 293.652 203.392C294.186 204.096 294.922 204.448 295.86 204.448C296.82 204.448 297.556 204.096 298.068 203.392C298.602 202.688 298.868 201.557 298.868 200C298.868 198.421 298.602 197.291 298.068 196.608C297.556 195.904 296.82 195.552 295.86 195.552ZM312.169 208.32C310.547 208.32 309.225 207.883 308.201 207.008C307.177 206.133 306.665 204.693 306.665 202.688V192H312.105V201.408C312.105 202.432 312.307 203.147 312.713 203.552C313.118 203.957 313.694 204.16 314.441 204.16C315.209 204.16 315.859 203.883 316.393 203.328C316.947 202.752 317.225 201.835 317.225 200.576V192H322.665V208H317.801L317.641 204.992C317.129 206.123 316.414 206.965 315.497 207.52C314.579 208.053 313.47 208.32 312.169 208.32ZM104.658 230H110.354L105.522 246H98.9942L96.0822 236.176L93.2662 246H86.7702L81.9062 230H87.6342L90.3222 241.808L93.4582 230H98.8342L101.938 241.808L104.658 230ZM120.611 235.856C120.611 235.109 120.398 234.523 119.971 234.096C119.566 233.648 119.011 233.424 118.307 233.424C117.603 233.424 116.995 233.605 116.483 233.968C115.993 234.309 115.651 234.928 115.459 235.824L110.851 234.736C111.15 233.2 111.939 231.973 113.219 231.056C114.499 230.139 116.302 229.68 118.627 229.68C120.974 229.68 122.787 230.203 124.067 231.248C125.369 232.272 126.019 233.776 126.019 235.76V241.616C126.019 242.448 126.393 242.864 127.139 242.864C127.523 242.864 127.833 242.821 128.067 242.736L127.747 245.84C127.107 246.139 126.329 246.288 125.411 246.288C124.409 246.288 123.545 246.096 122.819 245.712C122.094 245.307 121.603 244.699 121.347 243.888C120.899 244.72 120.185 245.339 119.203 245.744C118.243 246.128 117.219 246.32 116.131 246.32C114.489 246.32 113.177 245.947 112.195 245.2C111.235 244.432 110.755 243.333 110.755 241.904C110.755 240.752 111.097 239.803 111.779 239.056C112.483 238.288 113.582 237.755 115.075 237.456L120.611 236.304V235.856ZM116.131 241.392C116.131 241.861 116.302 242.213 116.643 242.448C116.985 242.683 117.39 242.8 117.859 242.8C118.585 242.8 119.225 242.587 119.779 242.16C120.334 241.712 120.611 241.019 120.611 240.08V239.184L118.019 239.728C117.379 239.856 116.899 240.048 116.579 240.304C116.281 240.539 116.131 240.901 116.131 241.392ZM129.574 246V230H134.438L134.598 233.232C135.089 232.059 135.804 231.173 136.742 230.576C137.681 229.979 138.79 229.68 140.07 229.68C141.713 229.68 143.046 230.16 144.07 231.12C145.094 232.08 145.606 233.488 145.606 235.344V246H140.166V236.784C140.166 235.675 139.953 234.907 139.526 234.48C139.1 234.053 138.556 233.84 137.894 233.84C137.105 233.84 136.422 234.117 135.846 234.672C135.292 235.227 135.014 236.176 135.014 237.52V246H129.574ZM160.14 230V233.872H155.372V240.304C155.372 241.072 155.554 241.627 155.916 241.968C156.3 242.288 156.823 242.448 157.484 242.448C157.996 242.448 158.434 242.395 158.796 242.288C159.159 242.16 159.5 241.979 159.82 241.744L160.396 245.104C159.863 245.467 159.18 245.765 158.348 246C157.538 246.213 156.716 246.32 155.884 246.32C154.05 246.32 152.599 245.936 151.532 245.168C150.487 244.379 149.954 243.056 149.932 241.2V233.872H147.18V230H149.932V226.416L155.372 224.912V230H160.14ZM181.736 230V233.872H176.967V240.304C176.967 241.072 177.149 241.627 177.511 241.968C177.895 242.288 178.418 242.448 179.08 242.448C179.591 242.448 180.029 242.395 180.391 242.288C180.754 242.16 181.095 241.979 181.415 241.744L181.991 245.104C181.458 245.467 180.775 245.765 179.943 246C179.133 246.213 178.311 246.32 177.479 246.32C175.645 246.32 174.194 245.936 173.127 245.168C172.082 244.379 171.549 243.056 171.527 241.2V233.872H168.775V230H171.527V226.416L176.967 224.912V230H181.736ZM191.224 229.68C192.91 229.68 194.382 230.011 195.64 230.672C196.92 231.333 197.912 232.283 198.616 233.52C199.342 234.757 199.704 236.251 199.704 238C199.704 239.749 199.342 241.243 198.616 242.48C197.912 243.717 196.92 244.667 195.64 245.328C194.382 245.989 192.91 246.32 191.224 246.32C189.56 246.32 188.088 245.989 186.808 245.328C185.55 244.667 184.558 243.717 183.832 242.48C183.128 241.243 182.776 239.749 182.776 238C182.776 236.251 183.128 234.757 183.832 233.52C184.558 232.283 185.55 231.333 186.808 230.672C188.088 230.011 189.56 229.68 191.224 229.68ZM191.224 233.552C190.286 233.552 189.55 233.904 189.016 234.608C188.504 235.291 188.248 236.421 188.248 238C188.248 239.557 188.504 240.688 189.016 241.392C189.55 242.096 190.286 242.448 191.224 242.448C192.184 242.448 192.92 242.096 193.432 241.392C193.966 240.688 194.232 239.557 194.232 238C194.232 236.421 193.966 235.291 193.432 234.608C192.92 233.904 192.184 233.552 191.224 233.552ZM217.361 246.32C215.761 246.32 214.278 246.064 212.913 245.552C211.547 245.019 210.406 244.261 209.489 243.28L212.049 240.272C212.582 240.955 213.286 241.531 214.161 242C215.057 242.448 216.049 242.672 217.137 242.672C217.798 242.672 218.342 242.576 218.769 242.384C219.195 242.192 219.409 241.893 219.409 241.488C219.409 241.211 219.302 240.976 219.089 240.784C218.875 240.592 218.449 240.432 217.809 240.304L215.569 239.856C213.563 239.451 212.134 238.853 211.281 238.064C210.449 237.253 210.033 236.197 210.033 234.896C210.033 234.021 210.299 233.189 210.833 232.4C211.366 231.611 212.187 230.96 213.297 230.448C214.406 229.936 215.825 229.68 217.553 229.68C220.859 229.68 223.27 230.597 224.785 232.432L222.193 235.376C221.681 234.736 221.019 234.235 220.209 233.872C219.398 233.509 218.587 233.328 217.777 233.328C216.219 233.328 215.441 233.723 215.441 234.512C215.441 234.789 215.569 235.035 215.825 235.248C216.102 235.461 216.603 235.632 217.329 235.76L220.241 236.336C221.883 236.656 223.067 237.211 223.793 238C224.518 238.768 224.881 239.707 224.881 240.816C224.881 242.373 224.251 243.685 222.993 244.752C221.755 245.797 219.878 246.32 217.361 246.32ZM235.991 235.856C235.991 235.109 235.778 234.523 235.351 234.096C234.946 233.648 234.391 233.424 233.687 233.424C232.983 233.424 232.375 233.605 231.863 233.968C231.373 234.309 231.031 234.928 230.839 235.824L226.231 234.736C226.53 233.2 227.319 231.973 228.599 231.056C229.879 230.139 231.682 229.68 234.007 229.68C236.354 229.68 238.167 230.203 239.447 231.248C240.749 232.272 241.399 233.776 241.399 235.76V241.616C241.399 242.448 241.773 242.864 242.519 242.864C242.903 242.864 243.213 242.821 243.447 242.736L243.127 245.84C242.487 246.139 241.709 246.288 240.791 246.288C239.789 246.288 238.925 246.096 238.199 245.712C237.474 245.307 236.983 244.699 236.727 243.888C236.279 244.72 235.565 245.339 234.583 245.744C233.623 246.128 232.599 246.32 231.511 246.32C229.869 246.32 228.557 245.947 227.575 245.2C226.615 244.432 226.135 243.333 226.135 241.904C226.135 240.752 226.477 239.803 227.159 239.056C227.863 238.288 228.962 237.755 230.455 237.456L235.991 236.304V235.856ZM231.511 241.392C231.511 241.861 231.682 242.213 232.023 242.448C232.365 242.683 232.77 242.8 233.239 242.8C233.965 242.8 234.605 242.587 235.159 242.16C235.714 241.712 235.991 241.019 235.991 240.08V239.184L233.399 239.728C232.759 239.856 232.279 240.048 231.959 240.304C231.661 240.539 231.511 240.901 231.511 241.392ZM254.636 230H260.268L254.508 246H248.012L242.252 230H247.98L251.276 242.192L254.636 230ZM269.06 246.32C266.393 246.32 264.281 245.595 262.724 244.144C261.188 242.693 260.42 240.645 260.42 238C260.42 236.251 260.772 234.757 261.476 233.52C262.201 232.261 263.183 231.312 264.42 230.672C265.679 230.011 267.14 229.68 268.804 229.68C270.489 229.68 271.919 230.011 273.092 230.672C274.287 231.312 275.193 232.208 275.812 233.36C276.431 234.491 276.74 235.792 276.74 237.264C276.74 237.669 276.719 238.064 276.676 238.448C276.655 238.811 276.633 239.12 276.612 239.376H265.7C265.849 240.485 266.212 241.285 266.788 241.776C267.364 242.245 268.121 242.48 269.06 242.48C269.871 242.48 270.511 242.32 270.98 242C271.471 241.68 271.833 241.232 272.068 240.656L276.42 242.096C276.121 243.013 275.599 243.792 274.852 244.432C274.127 245.051 273.252 245.52 272.228 245.84C271.225 246.16 270.169 246.32 269.06 246.32ZM268.804 233.488C267.076 233.488 266.052 234.48 265.732 236.464H271.588C271.353 234.48 270.425 233.488 268.804 233.488ZM284.672 224.56C286.23 224.56 287.627 224.784 288.864 225.232C290.123 225.659 291.104 226.309 291.808 227.184C292.534 228.059 292.896 229.147 292.896 230.448C292.896 231.771 292.619 232.848 292.064 233.68C291.531 234.512 290.795 235.141 289.856 235.568C288.939 235.995 287.926 236.272 286.816 236.4L286.496 239.152H281.696L281.728 234.288C283.67 234.117 285.035 233.776 285.824 233.264C286.635 232.731 287.04 232.037 287.04 231.184C287.04 230.501 286.816 229.968 286.368 229.584C285.92 229.179 285.227 228.976 284.288 228.976C282.432 228.976 281.366 230.053 281.088 232.208L275.84 230.384C276.096 229.275 276.576 228.283 277.28 227.408C277.984 226.533 278.944 225.84 280.16 225.328C281.376 224.816 282.88 224.56 284.672 224.56ZM284.192 240.848C285.152 240.848 285.899 241.093 286.432 241.584C286.987 242.053 287.264 242.704 287.264 243.536C287.264 244.389 286.987 245.061 286.432 245.552C285.899 246.021 285.152 246.256 284.192 246.256C283.211 246.256 282.443 246.021 281.888 245.552C281.355 245.061 281.088 244.389 281.088 243.536C281.088 242.704 281.355 242.053 281.888 241.584C282.443 241.093 283.211 240.848 284.192 240.848Z" fill="black"/>
<line x1="85" y1="478.5" x2="297.002" y2="478.5" stroke="#DADADA"/>
<path d="M180.073 473.816V470.904C178.366 470.733 176.798 470.328 175.369 469.688C173.961 469.048 172.82 468.259 171.945 467.32L174.537 463.736C175.113 464.547 175.902 465.219 176.905 465.752C177.908 466.285 178.964 466.648 180.073 466.84V462.392L178.761 462.072C177.033 461.667 175.614 461.027 174.505 460.152C173.417 459.256 172.873 458.051 172.873 456.536C172.873 454.808 173.502 453.347 174.761 452.152C176.02 450.936 177.79 450.2 180.073 449.944V447.064H183.433V449.944C186.377 450.264 188.756 451.405 190.569 453.368L188.073 456.6C187.412 455.896 186.697 455.32 185.929 454.872C185.182 454.424 184.35 454.115 183.433 453.944V458.52L184.489 458.744C186.516 459.192 188.009 459.853 188.969 460.728C189.929 461.581 190.409 462.765 190.409 464.28C190.409 466.2 189.758 467.725 188.457 468.856C187.177 469.965 185.502 470.648 183.433 470.904V473.816H180.073ZM177.801 455.8C177.801 456.227 177.94 456.6 178.217 456.92C178.516 457.219 179.134 457.496 180.073 457.752V453.848C179.284 453.976 178.708 454.221 178.345 454.584C177.982 454.925 177.801 455.331 177.801 455.8ZM185.641 464.984C185.641 464.579 185.47 464.227 185.129 463.928C184.809 463.629 184.244 463.384 183.433 463.192V466.936C184.905 466.68 185.641 466.029 185.641 464.984ZM201.437 471.32C198.557 471.32 196.37 470.403 194.877 468.568C193.405 466.733 192.669 464.024 192.669 460.44C192.669 456.856 193.405 454.147 194.877 452.312C196.37 450.477 198.557 449.56 201.437 449.56C204.317 449.56 206.493 450.477 207.965 452.312C209.458 454.147 210.205 456.856 210.205 460.44C210.205 464.024 209.458 466.733 207.965 468.568C206.493 470.403 204.317 471.32 201.437 471.32ZM201.437 467.032C202.61 467.032 203.453 466.531 203.965 465.528C204.498 464.504 204.765 462.808 204.765 460.44C204.765 458.072 204.498 456.387 203.965 455.384C203.453 454.36 202.61 453.848 201.437 453.848C200.264 453.848 199.41 454.36 198.877 455.384C198.365 456.387 198.109 458.072 198.109 460.44C198.109 462.808 198.365 464.504 198.877 465.528C199.41 466.531 200.264 467.032 201.437 467.032Z" fill="#E3E0E0"/>
<rect x="71" y="614" width="234" height="43" rx="12" fill="#A5A6F6"/>
<path d="M155.864 635.044C155.864 634.073 156.064 633.21 156.466 632.454C156.876 631.689 157.455 631.096 158.202 630.676C158.948 630.247 159.807 630.032 160.778 630.032C162.01 630.032 163.046 630.363 163.886 631.026C164.726 631.679 165.267 632.571 165.51 633.7H162.556C162.378 633.327 162.131 633.042 161.814 632.846C161.506 632.65 161.146 632.552 160.736 632.552C160.101 632.552 159.592 632.781 159.21 633.238C158.836 633.686 158.65 634.288 158.65 635.044C158.65 635.809 158.836 636.421 159.21 636.878C159.592 637.326 160.101 637.55 160.736 637.55C161.146 637.55 161.506 637.452 161.814 637.256C162.131 637.06 162.378 636.775 162.556 636.402H165.51C165.267 637.531 164.726 638.427 163.886 639.09C163.046 639.743 162.01 640.07 160.778 640.07C159.807 640.07 158.948 639.86 158.202 639.44C157.455 639.011 156.876 638.418 156.466 637.662C156.064 636.897 155.864 636.024 155.864 635.044ZM170.183 640.098C169.399 640.098 168.694 639.935 168.069 639.608C167.453 639.281 166.968 638.815 166.613 638.208C166.258 637.601 166.081 636.887 166.081 636.066C166.081 635.254 166.258 634.545 166.613 633.938C166.977 633.331 167.467 632.865 168.083 632.538C168.708 632.211 169.413 632.048 170.197 632.048C170.981 632.048 171.681 632.211 172.297 632.538C172.922 632.865 173.412 633.331 173.767 633.938C174.131 634.545 174.313 635.254 174.313 636.066C174.313 636.878 174.131 637.592 173.767 638.208C173.412 638.815 172.922 639.281 172.297 639.608C171.672 639.935 170.967 640.098 170.183 640.098ZM170.183 637.718C170.566 637.718 170.883 637.578 171.135 637.298C171.396 637.009 171.527 636.598 171.527 636.066C171.527 635.534 171.396 635.128 171.135 634.848C170.883 634.568 170.57 634.428 170.197 634.428C169.824 634.428 169.511 634.568 169.259 634.848C169.007 635.128 168.881 635.534 168.881 636.066C168.881 636.607 169.002 637.018 169.245 637.298C169.488 637.578 169.8 637.718 170.183 637.718ZM180.287 632.076C181.193 632.076 181.911 632.379 182.443 632.986C182.975 633.583 183.241 634.395 183.241 635.422V640H180.497V635.786C180.497 635.338 180.381 634.988 180.147 634.736C179.914 634.475 179.601 634.344 179.209 634.344C178.799 634.344 178.477 634.475 178.243 634.736C178.01 634.988 177.893 635.338 177.893 635.786V640H175.149V632.146H177.893V633.266C178.136 632.911 178.463 632.627 178.873 632.412C179.284 632.188 179.755 632.076 180.287 632.076ZM189.101 637.662V640H187.911C185.904 640 184.901 639.006 184.901 637.018V634.428H183.935V632.146H184.901V630.242H187.659V632.146H189.087V634.428H187.659V637.06C187.659 637.275 187.706 637.429 187.799 637.522C187.902 637.615 188.07 637.662 188.303 637.662H189.101ZM191.466 631.418C190.98 631.418 190.588 631.287 190.29 631.026C190 630.755 189.856 630.419 189.856 630.018C189.856 629.607 190 629.267 190.29 628.996C190.588 628.725 190.98 628.59 191.466 628.59C191.942 628.59 192.324 628.725 192.614 628.996C192.912 629.267 193.062 629.607 193.062 630.018C193.062 630.419 192.912 630.755 192.614 631.026C192.324 631.287 191.942 631.418 191.466 631.418ZM192.824 632.146V640H190.08V632.146H192.824ZM199.244 632.076C200.15 632.076 200.868 632.379 201.4 632.986C201.932 633.583 202.198 634.395 202.198 635.422V640H199.454V635.786C199.454 635.338 199.338 634.988 199.104 634.736C198.871 634.475 198.558 634.344 198.166 634.344C197.756 634.344 197.434 634.475 197.2 634.736C196.967 634.988 196.85 635.338 196.85 635.786V640H194.106V632.146H196.85V633.266C197.093 632.911 197.42 632.627 197.83 632.412C198.241 632.188 198.712 632.076 199.244 632.076ZM211.46 632.146V640H208.702V638.88C208.469 639.235 208.147 639.524 207.736 639.748C207.325 639.963 206.854 640.07 206.322 640.07C205.407 640.07 204.684 639.771 204.152 639.174C203.629 638.567 203.368 637.746 203.368 636.71V632.146H206.098V636.36C206.098 636.808 206.215 637.163 206.448 637.424C206.691 637.676 207.008 637.802 207.4 637.802C207.801 637.802 208.119 637.676 208.352 637.424C208.585 637.163 208.702 636.808 208.702 636.36V632.146H211.46ZM220.246 635.982C220.246 636.197 220.232 636.411 220.204 636.626H215.01C215.038 637.055 215.154 637.377 215.36 637.592C215.574 637.797 215.845 637.9 216.172 637.9C216.629 637.9 216.956 637.695 217.152 637.284H220.078C219.956 637.825 219.718 638.311 219.364 638.74C219.018 639.16 218.58 639.491 218.048 639.734C217.516 639.977 216.928 640.098 216.284 640.098C215.509 640.098 214.818 639.935 214.212 639.608C213.614 639.281 213.143 638.815 212.798 638.208C212.462 637.601 212.294 636.887 212.294 636.066C212.294 635.245 212.462 634.535 212.798 633.938C213.134 633.331 213.6 632.865 214.198 632.538C214.804 632.211 215.5 632.048 216.284 632.048C217.058 632.048 217.744 632.207 218.342 632.524C218.939 632.841 219.406 633.299 219.742 633.896C220.078 634.484 220.246 635.179 220.246 635.982ZM217.446 635.296C217.446 634.96 217.334 634.699 217.11 634.512C216.886 634.316 216.606 634.218 216.27 634.218C215.934 634.218 215.658 634.311 215.444 634.498C215.229 634.675 215.089 634.941 215.024 635.296H217.446Z" fill="black"/>
<path d="M341.252 44.2518C341.331 44.172 341.426 44.1086 341.53 44.0654C341.634 44.0222 341.746 44 341.858 44C341.971 44 342.083 44.0222 342.187 44.0654C342.291 44.1086 342.386 44.172 342.465 44.2518L347 48.7885L351.535 44.2518C351.615 44.1721 351.71 44.1089 351.814 44.0658C351.918 44.0226 352.029 44.0004 352.142 44.0004C352.255 44.0004 352.366 44.0226 352.47 44.0658C352.574 44.1089 352.669 44.1721 352.749 44.2518C352.828 44.3314 352.892 44.426 352.935 44.5301C352.978 44.6342 353 44.7458 353 44.8585C353 44.9712 352.978 45.0827 352.935 45.1868C352.892 45.2909 352.828 45.3855 352.749 45.4652L348.212 50.0002L352.749 54.5352C352.828 54.6149 352.892 54.7095 352.935 54.8136C352.978 54.9177 353 55.0293 353 55.142C353 55.2546 352.978 55.3662 352.935 55.4703C352.892 55.5744 352.828 55.669 352.749 55.7487C352.669 55.8284 352.574 55.8916 352.47 55.9347C352.366 55.9778 352.255 56 352.142 56C352.029 56 351.918 55.9778 351.814 55.9347C351.71 55.8916 351.615 55.8284 351.535 55.7487L347 51.212L342.465 55.7487C342.386 55.8284 342.291 55.8916 342.187 55.9347C342.083 55.9778 341.971 56 341.858 56C341.746 56 341.634 55.9778 341.53 55.9347C341.426 55.8916 341.331 55.8284 341.252 55.7487C341.172 55.669 341.109 55.5744 341.066 55.4703C341.023 55.3662 341 55.2546 341 55.142C341 55.0293 341.023 54.9177 341.066 54.8136C341.109 54.7095 341.172 54.6149 341.252 54.5352L345.788 50.0002L341.252 45.4652C341.172 45.3856 341.109 45.291 341.065 45.1869C341.022 45.0828 341 44.9712 341 44.8585C341 44.7458 341.022 44.6342 341.065 44.53C341.109 44.4259 341.172 44.3314 341.252 44.2518Z" fill="black"/>
<g filter="url(#filter0_d)">
<rect width="375" height="60" transform="translate(0 752)" fill="white"/>
<path d="M318.98 796.516H316.597L316.062 798H315.289L317.46 792.312H318.117L320.292 798H319.523L318.98 796.516ZM316.824 795.898H318.757L317.789 793.238L316.824 795.898ZM322.48 797.488C322.738 797.488 322.963 797.41 323.156 797.254C323.349 797.098 323.455 796.902 323.476 796.668H324.16C324.147 796.91 324.063 797.141 323.91 797.359C323.756 797.578 323.55 797.753 323.293 797.883C323.037 798.013 322.767 798.078 322.48 798.078C321.905 798.078 321.446 797.887 321.105 797.504C320.767 797.118 320.597 796.592 320.597 795.926V795.805C320.597 795.393 320.673 795.027 320.824 794.707C320.975 794.387 321.191 794.138 321.472 793.961C321.756 793.784 322.091 793.695 322.476 793.695C322.95 793.695 323.343 793.837 323.656 794.121C323.971 794.405 324.139 794.773 324.16 795.227H323.476C323.455 794.953 323.351 794.729 323.164 794.555C322.979 794.378 322.75 794.289 322.476 794.289C322.109 794.289 321.824 794.422 321.621 794.688C321.42 794.951 321.32 795.332 321.32 795.832V795.969C321.32 796.456 321.42 796.831 321.621 797.094C321.821 797.357 322.108 797.488 322.48 797.488ZM326.508 797.488C326.765 797.488 326.991 797.41 327.183 797.254C327.376 797.098 327.483 796.902 327.504 796.668H328.187C328.174 796.91 328.091 797.141 327.937 797.359C327.784 797.578 327.578 797.753 327.32 797.883C327.065 798.013 326.794 798.078 326.508 798.078C325.932 798.078 325.474 797.887 325.133 797.504C324.794 797.118 324.625 796.592 324.625 795.926V795.805C324.625 795.393 324.7 795.027 324.851 794.707C325.002 794.387 325.219 794.138 325.5 793.961C325.784 793.784 326.118 793.695 326.504 793.695C326.978 793.695 327.371 793.837 327.683 794.121C327.999 794.405 328.167 794.773 328.187 795.227H327.504C327.483 794.953 327.379 794.729 327.191 794.555C327.006 794.378 326.777 794.289 326.504 794.289C326.137 794.289 325.851 794.422 325.648 794.688C325.448 794.951 325.347 795.332 325.347 795.832V795.969C325.347 796.456 325.448 796.831 325.648 797.094C325.849 797.357 326.135 797.488 326.508 797.488ZM328.648 795.848C328.648 795.434 328.729 795.061 328.891 794.73C329.055 794.4 329.281 794.145 329.57 793.965C329.862 793.785 330.194 793.695 330.566 793.695C331.142 793.695 331.607 793.895 331.961 794.293C332.318 794.691 332.496 795.221 332.496 795.883V795.934C332.496 796.345 332.417 796.715 332.258 797.043C332.102 797.368 331.876 797.622 331.582 797.805C331.29 797.987 330.954 798.078 330.574 798.078C330.001 798.078 329.536 797.879 329.18 797.48C328.826 797.082 328.648 796.555 328.648 795.898V795.848ZM329.375 795.934C329.375 796.402 329.483 796.779 329.699 797.062C329.918 797.346 330.21 797.488 330.574 797.488C330.941 797.488 331.233 797.345 331.449 797.059C331.665 796.77 331.773 796.366 331.773 795.848C331.773 795.384 331.663 795.009 331.441 794.723C331.223 794.434 330.931 794.289 330.566 794.289C330.21 794.289 329.922 794.431 329.703 794.715C329.484 794.999 329.375 795.405 329.375 795.934ZM335.852 797.582C335.57 797.913 335.158 798.078 334.613 798.078C334.163 798.078 333.819 797.948 333.582 797.688C333.348 797.424 333.229 797.036 333.227 796.523V793.773H333.949V796.504C333.949 797.145 334.21 797.465 334.731 797.465C335.283 797.465 335.65 797.259 335.832 796.848V793.773H336.555V798H335.867L335.852 797.582ZM338.18 793.773L338.203 794.305C338.526 793.898 338.948 793.695 339.469 793.695C340.362 793.695 340.813 794.199 340.821 795.207V798H340.098V795.203C340.095 794.898 340.025 794.673 339.887 794.527C339.752 794.382 339.539 794.309 339.25 794.309C339.016 794.309 338.81 794.371 338.633 794.496C338.456 794.621 338.318 794.785 338.219 794.988V798H337.496V793.773H338.18ZM342.731 792.75V793.773H343.52V794.332H342.731V796.953C342.731 797.122 342.766 797.25 342.836 797.336C342.907 797.419 343.027 797.461 343.196 797.461C343.279 797.461 343.394 797.445 343.54 797.414V798C343.349 798.052 343.165 798.078 342.985 798.078C342.662 798.078 342.418 797.98 342.254 797.785C342.09 797.59 342.008 797.312 342.008 796.953V794.332H341.239V793.773H342.008V792.75H342.731Z" fill="black"/>
<path d="M123.66 798V792.312H125.52C126.137 792.312 126.6 792.44 126.91 792.695C127.223 792.951 127.379 793.328 127.379 793.828C127.379 794.094 127.303 794.329 127.152 794.535C127.001 794.738 126.796 794.896 126.535 795.008C126.842 795.094 127.085 795.258 127.262 795.5C127.441 795.74 127.531 796.026 127.531 796.359C127.531 796.87 127.366 797.271 127.035 797.562C126.704 797.854 126.237 798 125.633 798H123.66ZM124.41 795.34V797.387H125.648C125.997 797.387 126.272 797.297 126.473 797.117C126.676 796.935 126.777 796.685 126.777 796.367C126.777 795.682 126.405 795.34 125.66 795.34H124.41ZM124.41 794.738H125.543C125.871 794.738 126.133 794.656 126.328 794.492C126.526 794.328 126.625 794.105 126.625 793.824C126.625 793.512 126.534 793.285 126.352 793.145C126.169 793.001 125.892 792.93 125.52 792.93H124.41V794.738ZM130.981 797.582C130.699 797.913 130.287 798.078 129.742 798.078C129.292 798.078 128.948 797.948 128.711 797.688C128.477 797.424 128.358 797.036 128.356 796.523V793.773H129.078V796.504C129.078 797.145 129.339 797.465 129.86 797.465C130.412 797.465 130.779 797.259 130.961 796.848V793.773H131.684V798H130.996L130.981 797.582ZM132.45 795.852C132.45 795.203 132.603 794.682 132.91 794.289C133.218 793.893 133.62 793.695 134.118 793.695C134.612 793.695 135.004 793.865 135.293 794.203V792H136.016V798H135.352L135.317 797.547C135.028 797.901 134.625 798.078 134.11 798.078C133.62 798.078 133.22 797.878 132.91 797.477C132.603 797.076 132.45 796.552 132.45 795.906V795.852ZM133.172 795.934C133.172 796.413 133.271 796.788 133.469 797.059C133.667 797.329 133.94 797.465 134.289 797.465C134.748 797.465 135.082 797.259 135.293 796.848V794.906C135.077 794.508 134.745 794.309 134.297 794.309C133.943 794.309 133.667 794.445 133.469 794.719C133.271 794.992 133.172 795.397 133.172 795.934ZM136.809 795.852C136.809 795.193 136.961 794.669 137.266 794.281C137.571 793.891 137.974 793.695 138.477 793.695C138.993 793.695 139.395 793.878 139.684 794.242L139.719 793.773H140.379V797.898C140.379 798.445 140.217 798.876 139.891 799.191C139.568 799.507 139.133 799.664 138.586 799.664C138.282 799.664 137.984 799.599 137.692 799.469C137.4 799.339 137.178 799.16 137.024 798.934L137.399 798.5C137.709 798.883 138.088 799.074 138.536 799.074C138.887 799.074 139.161 798.975 139.356 798.777C139.554 798.579 139.653 798.301 139.653 797.941V797.578C139.364 797.911 138.969 798.078 138.469 798.078C137.974 798.078 137.573 797.879 137.266 797.48C136.961 797.082 136.809 796.539 136.809 795.852ZM137.536 795.934C137.536 796.41 137.633 796.785 137.829 797.059C138.024 797.329 138.297 797.465 138.649 797.465C139.105 797.465 139.439 797.258 139.653 796.844V794.914C139.431 794.51 139.099 794.309 138.657 794.309C138.305 794.309 138.03 794.445 137.833 794.719C137.635 794.992 137.536 795.397 137.536 795.934ZM143.067 798.078C142.494 798.078 142.028 797.891 141.669 797.516C141.309 797.138 141.13 796.634 141.13 796.004V795.871C141.13 795.452 141.209 795.078 141.368 794.75C141.529 794.419 141.753 794.161 142.04 793.977C142.329 793.789 142.641 793.695 142.977 793.695C143.527 793.695 143.954 793.876 144.258 794.238C144.563 794.6 144.715 795.118 144.715 795.793V796.094H141.852C141.863 796.51 141.984 796.848 142.215 797.105C142.45 797.361 142.747 797.488 143.106 797.488C143.361 797.488 143.577 797.436 143.755 797.332C143.932 797.228 144.087 797.09 144.219 796.918L144.661 797.262C144.307 797.806 143.775 798.078 143.067 798.078ZM142.977 794.289C142.686 794.289 142.441 794.396 142.243 794.609C142.045 794.82 141.923 795.117 141.876 795.5H143.993V795.445C143.972 795.078 143.873 794.794 143.696 794.594C143.519 794.391 143.279 794.289 142.977 794.289ZM146.376 792.75V793.773H147.165V794.332H146.376V796.953C146.376 797.122 146.411 797.25 146.481 797.336C146.552 797.419 146.671 797.461 146.841 797.461C146.924 797.461 147.039 797.445 147.184 797.414V798C146.994 798.052 146.809 798.078 146.63 798.078C146.307 798.078 146.063 797.98 145.899 797.785C145.735 797.59 145.653 797.312 145.653 796.953V794.332H144.884V793.773H145.653V792.75H146.376Z" fill="black"/>
<path d="M139.562 766.149V773.438L146.846 773.418C146.477 771.643 145.588 769.995 144.289 768.7C142.994 767.409 141.352 766.523 139.562 766.149Z" fill="black" fill-opacity="0.15"/>
<path d="M130.937 788.105C129.585 787.534 128.369 786.713 127.327 785.671C126.289 784.636 125.462 783.41 124.892 782.06C124.301 780.663 123.997 779.16 124 777.643V777.648C123.998 779.139 124.291 780.615 124.862 781.992C125.432 783.37 126.269 784.621 127.324 785.674C128.366 786.716 129.579 787.534 130.932 788.105C132.33 788.699 133.833 789.003 135.352 789C136.119 789 136.875 788.924 137.616 788.776C136.88 788.924 136.128 788.997 135.363 788.997C133.829 789 132.341 788.699 130.937 788.105ZM137.863 775.364C137.738 775.364 137.636 775.262 137.636 775.137V764.225C137.636 764.188 137.645 764.154 137.662 764.123C137.636 764.16 137.619 764.205 137.619 764.254V775.154C137.619 775.279 137.721 775.381 137.846 775.381L148.744 775.353C148.789 775.353 148.832 775.339 148.869 775.316C148.84 775.33 148.806 775.336 148.772 775.336L137.863 775.364Z" fill="black" fill-opacity="0.15"/>
<path d="M134.398 768.254C132.241 768.47 130.244 769.416 128.693 770.967C126.912 772.748 125.932 775.117 125.932 777.637C125.932 780.157 126.912 782.526 128.693 784.307C130.463 786.077 132.815 787.057 135.318 787.069C137.824 787.08 140.224 786.1 142.003 784.336C143.573 782.779 144.528 780.77 144.747 778.603H134.398V768.254Z" fill="black" fill-opacity="0.15"/>
<path d="M146.499 776.671H136.329V766.501C136.329 766.376 136.227 766.274 136.102 766.274H135.363C133.871 766.271 132.393 766.564 131.014 767.135C129.635 767.706 128.383 768.544 127.329 769.6C126.292 770.635 125.465 771.861 124.895 773.211C124.302 774.611 123.997 776.116 124 777.637V777.643C124 779.174 124.301 780.66 124.892 782.06C125.463 783.412 126.284 784.628 127.327 785.671C128.369 786.713 129.585 787.534 130.937 788.105C132.337 788.699 133.843 789.003 135.363 789C136.128 789 136.88 788.926 137.616 788.779C138.358 788.628 139.085 788.407 139.787 788.108C141.139 787.537 142.355 786.716 143.397 785.674C144.44 784.631 145.261 783.415 145.832 782.063C146.425 780.663 146.729 779.157 146.727 777.637V776.898C146.727 776.773 146.624 776.671 146.499 776.671ZM142.002 784.336C141.123 785.208 140.079 785.899 138.932 786.368C137.785 786.837 136.557 787.075 135.318 787.069C132.815 787.057 130.463 786.077 128.693 784.307C126.912 782.526 125.932 780.157 125.932 777.637C125.932 775.117 126.912 772.748 128.693 770.967C130.244 769.416 132.241 768.47 134.397 768.254V778.603H144.747C144.528 780.77 143.573 782.779 142.002 784.336Z" fill="black"/>
<path d="M148.999 775.092L148.925 774.29C148.684 771.674 147.522 769.205 145.653 767.342C143.782 765.475 141.319 764.319 138.687 764.075L137.883 764.001C137.787 763.992 137.701 764.044 137.662 764.123C137.646 764.155 137.637 764.19 137.636 764.225V775.137C137.636 775.262 137.738 775.364 137.863 775.364L148.772 775.336C148.806 775.336 148.837 775.327 148.869 775.316C148.911 775.296 148.945 775.264 148.969 775.224C148.992 775.184 149.003 775.138 148.999 775.092ZM139.562 773.438V766.149C141.352 766.523 142.994 767.409 144.289 768.7C145.587 769.995 146.477 771.643 146.846 773.418L139.562 773.438Z" fill="black"/>
<path d="M25 776.387C25 776.922 25.4088 777.384 26.063 777.384C26.3798 777.384 26.666 777.209 26.9215 777.004L28.0867 776.017V785.575C28.0867 787.096 28.9963 788 30.5601 788H44.3888C45.9424 788 46.8622 787.096 46.8622 785.575V775.966L48.0887 777.004C48.334 777.209 48.6202 777.384 48.937 777.384C49.5401 777.384 50 777.004 50 776.408C50 776.058 49.8671 775.781 49.6014 775.555L46.8622 773.232V768.854C46.8622 768.392 46.5658 768.104 46.1059 768.104H44.6954C44.2457 768.104 43.9391 768.392 43.9391 768.854V770.766L38.9616 766.563C38.0724 765.812 36.9481 765.812 36.0589 766.563L25.4088 775.555C25.1329 775.781 25 776.089 25 776.387ZM40.4436 779.224C40.4436 778.741 40.137 778.432 39.6566 778.432H35.3639C34.8835 778.432 34.5666 778.741 34.5666 779.224V785.955H31.1018C30.4681 785.955 30.1206 785.595 30.1206 784.948V774.301L37.0605 768.443C37.3467 768.197 37.6738 768.197 37.9599 768.443L44.8181 774.239V784.948C44.8181 785.595 44.4706 785.955 43.8369 785.955H40.4436V779.224Z" fill="#1C1C1E"/>
<path d="M32.0312 798H31.2773V795.371H28.4102V798H27.6602V792.312H28.4102V794.758H31.2773V792.312H32.0312V798ZM32.8986 795.848C32.8986 795.434 32.9793 795.061 33.1408 794.73C33.3048 794.4 33.5314 794.145 33.8205 793.965C34.1121 793.785 34.4442 793.695 34.8166 793.695C35.3921 793.695 35.8569 793.895 36.2111 794.293C36.5679 794.691 36.7463 795.221 36.7463 795.883V795.934C36.7463 796.345 36.6668 796.715 36.508 797.043C36.3517 797.368 36.1265 797.622 35.8322 797.805C35.5405 797.987 35.2046 798.078 34.8244 798.078C34.2515 798.078 33.7866 797.879 33.4298 797.48C33.0757 797.082 32.8986 796.555 32.8986 795.898V795.848ZM33.6252 795.934C33.6252 796.402 33.7332 796.779 33.9494 797.062C34.1681 797.346 34.4598 797.488 34.8244 797.488C35.1916 797.488 35.4832 797.345 35.6994 797.059C35.9155 796.77 36.0236 796.366 36.0236 795.848C36.0236 795.384 35.9129 795.009 35.6916 794.723C35.4728 794.434 35.1811 794.289 34.8166 794.289C34.4598 794.289 34.172 794.431 33.9533 794.715C33.7345 794.999 33.6252 795.405 33.6252 795.934ZM38.1722 793.773L38.1917 794.242C38.5016 793.878 38.9196 793.695 39.4456 793.695C40.0368 793.695 40.4391 793.922 40.6527 794.375C40.7933 794.172 40.9756 794.008 41.1995 793.883C41.4261 793.758 41.693 793.695 42.0003 793.695C42.9274 793.695 43.3988 794.186 43.4144 795.168V798H42.6917V795.211C42.6917 794.909 42.6227 794.684 42.4847 794.535C42.3467 794.384 42.1149 794.309 41.7894 794.309C41.5211 794.309 41.2985 794.389 41.1214 794.551C40.9443 794.71 40.8415 794.924 40.8128 795.195V798H40.0863V795.23C40.0863 794.616 39.7855 794.309 39.1839 794.309C38.7099 794.309 38.3857 794.51 38.2113 794.914V798H37.4886V793.773H38.1722ZM46.102 798.078C45.5291 798.078 45.063 797.891 44.7036 797.516C44.3442 797.138 44.1645 796.634 44.1645 796.004V795.871C44.1645 795.452 44.244 795.078 44.4028 794.75C44.5643 794.419 44.7882 794.161 45.0747 793.977C45.3638 793.789 45.6763 793.695 46.0122 793.695C46.5617 793.695 46.9888 793.876 47.2934 794.238C47.5981 794.6 47.7505 795.118 47.7505 795.793V796.094H44.8872C44.8976 796.51 45.0187 796.848 45.2505 797.105C45.4848 797.361 45.7817 797.488 46.1411 797.488C46.3963 797.488 46.6124 797.436 46.7895 797.332C46.9666 797.228 47.1216 797.09 47.2544 796.918L47.6958 797.262C47.3416 797.806 46.8104 798.078 46.102 798.078ZM46.0122 794.289C45.7205 794.289 45.4757 794.396 45.2778 794.609C45.0799 794.82 44.9575 795.117 44.9106 795.5H47.0278V795.445C47.007 795.078 46.908 794.794 46.7309 794.594C46.5539 794.391 46.3143 794.289 46.0122 794.289Z" fill="black"/>
<path d="M219.82 795.699H218.484V798H217.73V792.312H219.613C220.253 792.312 220.746 792.458 221.089 792.75C221.436 793.042 221.609 793.466 221.609 794.023C221.609 794.378 221.513 794.686 221.32 794.949C221.13 795.212 220.864 795.409 220.523 795.539L221.859 797.953V798H221.054L219.82 795.699ZM218.484 795.086H219.636C220.009 795.086 220.304 794.99 220.523 794.797C220.744 794.604 220.855 794.346 220.855 794.023C220.855 793.672 220.75 793.402 220.539 793.215C220.33 793.027 220.028 792.932 219.632 792.93H218.484V795.086ZM224.144 798.078C223.571 798.078 223.105 797.891 222.746 797.516C222.386 797.138 222.207 796.634 222.207 796.004V795.871C222.207 795.452 222.286 795.078 222.445 794.75C222.606 794.419 222.83 794.161 223.117 793.977C223.406 793.789 223.718 793.695 224.054 793.695C224.604 793.695 225.031 793.876 225.336 794.238C225.64 794.6 225.793 795.118 225.793 795.793V796.094H222.929C222.94 796.51 223.061 796.848 223.293 797.105C223.527 797.361 223.824 797.488 224.183 797.488C224.438 797.488 224.655 797.436 224.832 797.332C225.009 797.228 225.164 797.09 225.297 796.918L225.738 797.262C225.384 797.806 224.853 798.078 224.144 798.078ZM224.054 794.289C223.763 794.289 223.518 794.396 223.32 794.609C223.122 794.82 223 795.117 222.953 795.5H225.07V795.445C225.049 795.078 224.95 794.794 224.773 794.594C224.596 794.391 224.356 794.289 224.054 794.289ZM230.215 797.004L231.027 793.773H231.75L230.519 798H229.933L228.906 794.797L227.906 798H227.32L226.094 793.773H226.812L227.644 796.938L228.629 793.773H229.211L230.215 797.004ZM234.938 798C234.896 797.917 234.862 797.768 234.836 797.555C234.5 797.904 234.099 798.078 233.633 798.078C233.216 798.078 232.874 797.961 232.605 797.727C232.34 797.49 232.207 797.19 232.207 796.828C232.207 796.388 232.374 796.047 232.707 795.805C233.043 795.56 233.514 795.438 234.121 795.438H234.824V795.105C234.824 794.853 234.749 794.652 234.598 794.504C234.447 794.353 234.224 794.277 233.93 794.277C233.672 794.277 233.456 794.342 233.281 794.473C233.107 794.603 233.02 794.76 233.02 794.945H232.293C232.293 794.734 232.367 794.531 232.516 794.336C232.667 794.138 232.87 793.982 233.125 793.867C233.383 793.753 233.665 793.695 233.973 793.695C234.46 793.695 234.841 793.818 235.117 794.062C235.393 794.305 235.536 794.639 235.547 795.066V797.012C235.547 797.4 235.596 797.708 235.695 797.938V798H234.938ZM233.738 797.449C233.965 797.449 234.18 797.391 234.383 797.273C234.586 797.156 234.733 797.004 234.824 796.816V795.949H234.258C233.372 795.949 232.93 796.208 232.93 796.727C232.93 796.953 233.005 797.13 233.156 797.258C233.307 797.385 233.501 797.449 233.738 797.449ZM238.563 794.422C238.453 794.404 238.335 794.395 238.207 794.395C237.733 794.395 237.412 794.596 237.242 795V798H236.52V793.773H237.223L237.235 794.262C237.472 793.884 237.807 793.695 238.242 793.695C238.383 793.695 238.49 793.714 238.563 793.75V794.422ZM238.817 795.852C238.817 795.203 238.97 794.682 239.278 794.289C239.585 793.893 239.987 793.695 240.485 793.695C240.979 793.695 241.371 793.865 241.66 794.203V792H242.383V798H241.719L241.684 797.547C241.395 797.901 240.993 798.078 240.477 798.078C239.987 798.078 239.588 797.878 239.278 797.477C238.97 797.076 238.817 796.552 238.817 795.906V795.852ZM239.539 795.934C239.539 796.413 239.638 796.788 239.836 797.059C240.034 797.329 240.308 797.465 240.657 797.465C241.115 797.465 241.45 797.259 241.66 796.848V794.906C241.444 794.508 241.112 794.309 240.664 794.309C240.31 794.309 240.034 794.445 239.836 794.719C239.638 794.992 239.539 795.397 239.539 795.934ZM245.809 796.879C245.809 796.684 245.735 796.533 245.586 796.426C245.441 796.316 245.184 796.223 244.817 796.145C244.452 796.066 244.162 795.973 243.946 795.863C243.732 795.754 243.573 795.624 243.469 795.473C243.368 795.322 243.317 795.142 243.317 794.934C243.317 794.587 243.463 794.294 243.754 794.055C244.049 793.815 244.424 793.695 244.879 793.695C245.359 793.695 245.747 793.819 246.043 794.066C246.343 794.314 246.493 794.63 246.493 795.016H245.766C245.766 794.818 245.681 794.647 245.512 794.504C245.346 794.361 245.135 794.289 244.879 794.289C244.616 794.289 244.411 794.346 244.262 794.461C244.114 794.576 244.04 794.725 244.04 794.91C244.04 795.085 244.109 795.216 244.247 795.305C244.385 795.393 244.633 795.478 244.993 795.559C245.355 795.639 245.648 795.736 245.872 795.848C246.096 795.96 246.261 796.095 246.368 796.254C246.477 796.41 246.532 796.602 246.532 796.828C246.532 797.206 246.381 797.509 246.079 797.738C245.777 797.965 245.385 798.078 244.903 798.078C244.564 798.078 244.265 798.018 244.004 797.898C243.744 797.779 243.54 797.612 243.391 797.398C243.245 797.182 243.172 796.949 243.172 796.699H243.895C243.908 796.941 244.004 797.134 244.184 797.277C244.366 797.418 244.606 797.488 244.903 797.488C245.176 797.488 245.395 797.434 245.559 797.324C245.726 797.212 245.809 797.064 245.809 796.879Z" fill="black"/>
<path d="M240.457 768.172H238.211V767.195C238.211 767.088 238.123 767 238.016 767H225.516C225.408 767 225.32 767.088 225.32 767.195V768.172H223.074C222.789 768.172 222.516 768.285 222.315 768.487C222.113 768.688 222 768.961 222 769.246V772.859C222 774.854 223.465 776.512 225.374 776.814C225.752 779.651 228.03 781.885 230.887 782.198V784.766H226.102C225.669 784.766 225.32 785.115 225.32 785.547V786.336C225.32 786.443 225.408 786.531 225.516 786.531H238.016C238.123 786.531 238.211 786.443 238.211 786.336V785.547C238.211 785.115 237.862 784.766 237.43 784.766H232.645V782.198C235.501 781.885 237.779 779.651 238.157 776.814C240.066 776.512 241.531 774.854 241.531 772.859V769.246C241.531 768.961 241.418 768.688 241.217 768.487C241.015 768.285 240.742 768.172 240.457 768.172ZM223.758 772.859V769.93H225.32V774.998C224.867 774.853 224.471 774.568 224.19 774.184C223.909 773.799 223.758 773.335 223.758 772.859ZM236.453 775.984C236.453 777.183 235.987 778.313 235.137 779.161C234.288 780.01 233.16 780.477 231.961 780.477H231.57C230.372 780.477 229.241 780.01 228.394 779.161C227.544 778.311 227.078 777.183 227.078 775.984V768.758H236.453V775.984ZM239.773 772.859C239.773 773.86 239.117 774.71 238.211 774.998V769.93H239.773V772.859Z" fill="black"/>
<path d="M329.5 777.875C330.942 777.875 332.325 777.302 333.345 776.282C334.365 775.263 334.938 773.88 334.938 772.438C334.938 770.995 334.365 769.612 333.345 768.593C332.325 767.573 330.942 767 329.5 767C328.058 767 326.675 767.573 325.655 768.593C324.635 769.612 324.062 770.995 324.062 772.438C324.062 773.88 324.635 775.263 325.655 776.282C326.675 777.302 328.058 777.875 329.5 777.875ZM333.125 772.438C333.125 773.399 332.743 774.321 332.063 775.001C331.383 775.681 330.461 776.062 329.5 776.062C328.539 776.062 327.617 775.681 326.937 775.001C326.257 774.321 325.875 773.399 325.875 772.438C325.875 771.476 326.257 770.554 326.937 769.874C327.617 769.194 328.539 768.812 329.5 768.812C330.461 768.812 331.383 769.194 332.063 769.874C332.743 770.554 333.125 771.476 333.125 772.438ZM340.375 786.938C340.375 788.75 338.562 788.75 338.562 788.75H320.438C320.438 788.75 318.625 788.75 318.625 786.938C318.625 785.125 320.438 779.688 329.5 779.688C338.562 779.688 340.375 785.125 340.375 786.938ZM338.562 786.93C338.561 786.484 338.283 785.143 337.055 783.914C335.873 782.732 333.649 781.5 329.5 781.5C325.349 781.5 323.127 782.732 321.946 783.914C320.717 785.143 320.441 786.484 320.438 786.93H338.562Z" fill="black"/>
</g>
</g>
<defs>
<filter id="filter0_d" x="-4" y="745" width="383" height="68" filterUnits="userSpaceOnUse" color-interpolation-filters="sRGB">
<feFlood flood-opacity="0" result="BackgroundImageFix"/>
<feColorMatrix in="SourceAlpha" type="matrix" values="0 0 0 0 0 0 0 0 0 0 0 0 0 0 0 0 0 0 127 0" result="hardAlpha"/>
<feMorphology radius="3" operator="erode" in="SourceAlpha" result="effect1_dropShadow"/>
<feOffset dy="-3"/>
<feGaussianBlur stdDeviation="3.5"/>
<feComposite in2="hardAlpha" operator="out"/>
<feColorMatrix type="matrix" values="0 0 0 0 0.470588 0 0 0 0 0.47451 0 0 0 0 0.945098 0 0 0 0.22 0"/>
<feBlend mode="normal" in2="BackgroundImageFix" result="effect1_dropShadow"/>
<feBlend mode="normal" in="SourceGraphic" in2="effect1_dropShadow" result="shape"/>
</filter>
<clipPath id="clip0">
<rect width="375" height="812" fill="white"/>
</clipPath>
<clipPath id="clip1">
<rect width="375" height="44" fill="white"/>
</clipPath>
</defs>
</svg>
